<?xml version="1.0" encoding="utf-8"?>
<svg xmlns="http://www.w3.org/2000/svg" xmlns:xlink="http://www.w3.org/1999/xlink" version= "1.1" width="1618px" height="1000px" viewBox="-449 211 1618 1000">
<g id="layer1">
<g style="fill:rgb(0,174,199); fill-opacity:1.0; stroke-linejoin: miter">
<path d="M-449.001,209.5038C-449.39755,209.5038,-449.7779,209.66132,-450.0583,209.94173C-450.33868,210.22214,-450.49622,210.60245,-450.49622,210.999L-450.4952,1211.0C-450.4952,1211.8258,-449.82578,1212.4952,-449.0,1212.4952L1169.001,1212.4962C1169.3976,1212.4962,1169.7778,1212.3386,1170.0582,1212.0582C1170.3386,1211.7778,1170.4962,1211.3976,1170.4962,1211.001L1170.4952,211.0C1170.4952,210.17422,1169.8258,209.5048,1169.0,209.5048L-449.001,209.5038 Z"/>
</g>
<g style="fill:rgb(255,200,166); fill-opacity:0.99607843; stroke-linejoin: miter">
<path d="M366.34344,496.7988L365.09076,493.46216L363.8381,490.1255Q334.1366,491.7718,304.4351,493.41812Q302.60742,507.70102,300.7798,521.98395Q307.3628,535.0003,313.9458,548.01666L366.34344,496.7988"/>
</g>
<g style="fill:rgb(0,0,0); fill-opacity:0.20392157; stroke-linejoin: miter">
<path d="M936.35394,1135.2195L931.3521,1136.8704Q923.44977,1137.979,908.783,1138.9891Q905.6773,1139.5558,849.5627,1141.7972Q799.9358,1143.5214,723.25134,1144.8508Q624.06647,1146.3579,600.57324,1146.4486Q557.3954,1146.8496,511.1706,1147.0751Q418.7212,1147.526,314.08408,1147.2749Q264.15286,1147.0995,218.66492,1146.7738Q193.14392,1146.7048,92.198425,1145.4587Q14.552353,1144.3568,-45.32065,1142.654Q-178.99625,1138.5345,-156.3449,1134.092Q-146.38881,1131.88,-107.05373,1130.0111Q-87.3862,1129.0767,-60.37391,1128.228Q-51.02301,1127.7404,36.318176,1125.8943Q181.47223,1123.169,388.4336,1123.053Q514.40436,1123.2682,534.963,1123.507Q580.9089,1123.7805,622.9918,1124.2173Q707.1578,1125.0907,775.8718,1126.6165Q844.5858,1128.1422,883.92096,1130.0111Q903.58844,1130.9456,915.9113,1131.9658Q940.29156,1134.5914,936.35394,1135.2195"/>
</g>
<g style="fill:rgb(0,0,0); fill-opacity:0.99607843; stroke-linejoin: miter">
<path d="M42.278835,676.4894L40.041294,692.2105Q32.2887,740.4644,33.895844,778.9042Q38.084267,818.8446,55.346886,828.24713Q77.90363,852.78534,212.69142,818.8031L243.52995,1129.4415L324.1096,1114.8757Q328.95193,943.36475,325.1317,879.4381Q320.12155,797.74146,303.4084,777.85706Q288.9867,757.97296,266.06516,753.5061Q242.01343,746.8689,164.55038,746.36743L160.86514,660.70544L42.278835,676.4894"/>
</g>
<g style="fill:rgb(255,200,166); fill-opacity:1.0; stroke-linejoin: miter">
<path d="M279.94614,862.31744L296.80084,901.9126L276.06885,933.80615L245.90161,926.6421Q253.78235,915.5095,257.85382,913.937Q261.9018,911.652,270.26025,915.06946L254.6117,881.6326L279.94614,862.31744"/>
</g>
<g style="fill:rgb(27,2,2); fill-opacity:1.0; stroke-linejoin: miter">
<path d="M-65.52438,525.9083L-44.245075,525.90924L-22.965765,525.91016Q-22.965857,682.32556,-22.965933,838.7413Q-44.245167,838.7419,-65.52446,838.7425Q-65.52461,682.32556,-65.52438,525.9083"/>
</g>
<g style="fill:rgb(27,2,2); fill-opacity:1.0; stroke-linejoin: miter">
<path d="M-67.83099,811.10406L76.55676,811.10443L220.94456,811.1053Q220.94463,845.1994,220.94463,879.29254Q76.55676,879.2935,-67.830986,879.2941Q-67.83099,845.19916,-67.83099,811.10406"/>
</g>
<g style="fill:rgb(27,2,2); fill-opacity:1.0; stroke-linejoin: miter">
<path d="M-53.137127,827.6353L-40.893467,827.6359L-28.650032,827.63654Q-28.650095,984.9166,-28.650187,1142.1962Q-40.8937,1142.1968,-53.137203,1142.198Q-53.137127,984.9166,-53.137127,827.6353"/>
</g>
<g style="fill:rgb(27,2,2); fill-opacity:1.0; stroke-linejoin: miter">
<path d="M153.87048,855.9827L166.11385,855.98346L178.35735,855.9841Q178.35725,999.09045,178.35677,1142.1959Q166.11333,1142.1959,153.8699,1142.197Q153.87033,999.09033,153.87048,855.9827"/>
</g>
<g style="fill:rgb(201,73,123); fill-opacity:0.99607843; stroke-linejoin: miter">
<path d="M373.09164,903.2202L373.09164,903.2202L373.09073,903.21985L373.09164,903.2202"/>
</g>
<g style="fill:rgb(41,56,85); fill-opacity:1.0; stroke-linejoin: miter">
<path d="M359.2734,627.0154L578.71545,627.0163L798.1572,627.0168Q798.15735,640.5255,798.15735,654.03455Q578.71545,654.0354,359.2734,654.0362Q359.2734,640.52576,359.2734,627.0154"/>
</g>
<g style="fill:rgb(27,2,2); fill-opacity:1.0; stroke-linejoin: miter">
<path d="M388.48956,600.6912L498.94617,600.69214L609.4029,600.69275Q609.4029,614.049,609.4029,627.4056Q498.94617,627.4062,388.48956,627.40686Q388.48956,614.049,388.48956,600.6912"/>
</g>
<g style="fill:rgb(27,2,2); fill-opacity:1.0; stroke-linejoin: miter">
<path d="M619.34106,391.0932L629.3615,392.54633L639.3815,393.9997Q623.85266,501.11737,608.32336,608.2347Q598.3031,606.78296,588.28235,605.3314Q603.81165,498.2118,619.34106,391.0932"/>
</g>
<g style="fill:rgb(41,56,85); fill-opacity:1.0; stroke-linejoin: miter">
<path d="M361.12064,642.5921L371.24496,642.5933L381.36935,642.5947Q381.36942,885.80835,381.36935,1129.0217Q371.24496,1129.023,361.1207,1129.0242Q361.1207,885.80835,361.12064,642.5921"/>
</g>
<g style="fill:rgb(0,0,0); fill-opacity:1.0; stroke-linejoin: miter">
<path d="M479.71924,553.26196C482.59155,542.3865,482.03064,533.0139,478.03662,525.1446C477.81006,524.04675,473.27582,518.75146,467.18433,507.602C460.4743,495.32074,457.96222,488.0114,456.77338,487.10437C453.34265,482.38074,448.8023,478.8,443.0174,476.72662C424.2027,469.98315,401.80573,469.32318,375.9747,474.47363C370.49478,475.5664,363.342,483.40002,357.455,485.12384L352.95523,509.9248C365.98672,539.341,366.18655,547.1033,376.19064,558.0991C381.20767,563.6135,387.2304,568.9437,394.33435,574.13196C398.41412,577.11127,408.35175,583.1368,424.22876,592.16223C426.68945,593.561,428.78784,595.1776,430.7342,596.6823C435.2951,600.2081,438.82843,604.6826,441.2751,610.183C448.6051,609.25397,455.1538,604.30396,460.9074,595.3242C469.64886,581.6814,475.90887,567.6817,479.7013,553.3342 Z"/>
</g>
<g style="fill:rgb(255,200,166); fill-opacity:1.0; stroke-linejoin: miter">
<path d="M433.4267,595.8427C431.92175,582.4606,429.2865,574.8765,426.0332,572.37274C423.30145,570.2704,418.3911,569.339,410.7348,570.2537L401.6969,558.58093L383.9429,554.89215L383.70108,545.84686C393.88092,543.18243,399.9689,540.91876,402.1129,539.2394C404.7565,537.16864,405.32324,534.47974,403.71796,530.96387C401.78192,526.72363,399.0537,523.80035,395.62775,521.945C393.41275,520.7454,388.80115,520.3309,381.64194,520.96655C380.3433,520.73004,379.18332,519.89307,377.80252,518.8998C375.56638,517.29114,349.07715,507.9289,357.52304,490.3401L307.74203,543.83777L322.99167,544.05176L320.06454,572.2347C316.5989,582.83954,316.13217,589.05975,317.86014,591.5286C319.5979,594.0115,325.33557,594.5568,335.94327,592.6264C340.6595,596.0421,343.86505,597.55035,345.57785,597.5356C347.58218,597.5183,349.77097,596.0058,352.1531,592.6127C352.24838,597.24066,353.18698,599.8347,354.71353,600.82965C356.2935,601.85944,359.93893,602.2098,365.94376,601.4706C365.89713,609.4833,367.02335,613.17035,369.3707,613.0185C370.5233,612.944,372.33688,612.4153,374.81473,610.9423L391.91125,599.6984L396.69214,599.54565C400.54364,601.3916,404.55023,601.95746,408.74506,601.5473C412.76294,601.1544,420.97156,599.36163,433.34515,595.86475 Z"/>
</g>
<g style="fill:rgb(250,87,87); fill-opacity:0.07450981; stroke-linejoin: miter">
<path d="M345.2045,542.0786L304.53912,534.9552L320.8126,570.27356Q327.96826,557.867,332.69452,552.5815Q337.08127,547.5066,345.17316,542.1003"/>
</g>
<g style="fill:rgb(0,0,0); fill-opacity:0.99607843; stroke-linejoin: miter">
<path d="M424.22473,609.7199L424.22473,609.7199L424.22473,609.7199L424.22473,609.7199"/>
</g>
<g style="fill:rgb(255,255,255); fill-opacity:1.0; stroke-linejoin: miter">
<path d="M168.42937,745.1457L167.05861,747.57556Q153.60605,775.62085,112.18419,779.5231Q79.92311,785.8454,27.20813,765.71344Q33.11158,676.1553,63.49741,627.38745Q112.621765,547.0086,189.7299,502.8297Q241.79604,475.0475,319.29852,485.17004L317.74707,528.66626L320.46796,547.57385L302.67154,554.05035Q300.49118,577.7368,286.0934,593.1371Q285.0588,594.87476,273.89127,603.2369Q241.78471,623.5219,229.75531,633.46045Q218.64714,642.51984,210.14168,654.0292Q203.16534,662.6062,192.66328,683.8191Q190.00111,687.2615,168.42937,745.1457"/>
</g>
<g style="fill:rgb(83,150,190); fill-opacity:0.99607843; stroke-linejoin: miter">
<path d="M159.46751,313.62753L159.46751,313.62772L159.46748,313.6279L159.46751,313.62772L159.46751,313.62753L159.46751,313.62772L159.46748,313.6279Q159.46751,313.62772,159.46751,313.62753"/>
</g>
<g style="fill:rgb(255,255,255); fill-opacity:1.0; stroke-linejoin: miter">
<path d="M267.9457,555.1746L247.68561,534.20874L300.13828,542.1773Q290.5703,683.57495,289.9383,739.7097Q288.56537,798.4436,294.1234,886.78284L246.90886,884.03937Q208.04068,684.6993,187.48943,597.2787L267.9457,555.1746"/>
</g>
<g style="fill:rgb(0,0,0); fill-opacity:0.99607843; stroke-linejoin: miter">
<path d="M295.17798,1105.804L300.17172,1105.8438Q322.69943,1106.0013,332.7997,1107.0421Q345.84915,1108.322,351.54507,1110.9144Q354.28976,1112.111,356.14572,1113.6583Q357.50803,1114.2607,360.11813,1118.9304Q362.3445,1123.7517,361.37497,1134.3953L238.5458,1136.0325L247.40405,1104.228L295.17798,1105.804"/>
</g>
<g style="fill:rgb(41,56,85); fill-opacity:1.0; stroke-linejoin: miter">
<path d="M773.97235,642.592L794.22095,642.5946L794.2208,1129.0216L773.9722,1129.024L773.97235,642.592"/>
</g>
<g style="fill:rgb(255,255,255); fill-opacity:1.0; stroke-linejoin: miter">
<path d="M658.8668,550.01294L695.64124,550.01434L732.4158,550.01556Q732.41565,588.63916,732.41565,627.2629Q695.6411,627.2644,658.86676,627.2656Q658.86676,588.63916,658.8668,550.01294"/>
</g>
<g style="fill:rgb(255,255,255); fill-opacity:1.0; stroke-linejoin: miter">
<path d="M691.9575,561.1475L691.9575,561.1475L748.4817,561.14764C750.23706,561.14764,751.6598,562.5705,751.6598,564.32574L751.6598,564.32574L751.6598,601.49817C751.6598,603.25354,750.237,604.67633,748.4816,604.67633L748.4816,604.67633L691.9574,604.67706C691.11444,604.67706,690.30597,604.34216,689.71,603.74615C689.1141,603.1501,688.7793,602.34174,688.7793,601.49896L688.7793,601.49896L688.7793,564.32556C688.7793,563.4826,689.1141,562.6743,689.7101,562.07825C690.3061,561.4823,691.11456,561.1475,691.9575,561.1475L691.9575,561.1475 M691.9574,567.5037L695.13544,564.32556L695.13544,601.49896L691.9574,598.3208L748.4816,598.3202L745.30347,601.49817L745.30347,564.32574L748.4816,567.50385L691.9574,567.5037 Z"/>
</g>
<g style="fill:rgb(255,200,166); fill-opacity:0.99607843; stroke-linejoin: miter">
<path d="M361.38135,414.54376L361.38135,414.5439L361.38138,414.54407L361.38135,414.54376"/>
</g>
<g style="fill:rgb(255,200,166); fill-opacity:0.99607843; stroke-linejoin: miter">
<path d="M324.14444,626.6419L324.14447,626.642L324.14447,626.64215L324.14444,626.6419"/>
</g>
</g>
</svg>