<?xml version='1.0' encoding='utf-8'?>
<svg xmlns="http://www.w3.org/2000/svg" version="1.1" width="600px" height="976px" viewBox="0 0 600 976"> <g id="layer1"> <g style="fill:rgb(0,0,0); fill-opacity:1.0; stroke-linejoin: miter"> <path d="M163.68878,756.6336L163.68878,756.6336L61.884842,749.7351L62.531303,749.311L60.728996,754.3784L59.857788,753.5825C60.714725,753.18744,61.785954,752.6753,62.799625,752.74243L62.7996,752.7424C64.38928,752.84753,65.412994,754.23706,65.9663,757.18854L65.96629,757.18854C66.927475,762.3157,66.764694,773.738,63.715935,778.0908L63.715946,778.0908C62.19178,780.267,59.99947,780.67487,57.702827,780.52295L57.70283,780.52295C56.500122,780.44336,55.226013,780.20874,53.962357,779.97675L53.96236,779.97675C52.60956,779.72845,51.26111,779.4817,49.930634,779.3937L49.930584,779.3937C49.76259,779.38257,49.594852,779.374,49.42815,779.36835L49.428185,779.3683C47.70404,779.3097,46.001057,779.5553,44.361393,779.79333L44.36139,779.79333C42.966972,779.99585,41.58956,780.1978,40.362667,780.1562L40.362713,780.1561C40.26982,780.153,40.177006,780.14844,40.08509,780.14233L40.08509,780.14233C38.615116,780.04504,37.28487,779.55347,36.353676,778.2019L36.353676,778.2019C33.927303,774.6802,34.463776,765.1937,34.935654,756.196C34.943592,756.04474,35.004913,755.9012,35.10875,755.7908L35.10875,755.7908L40.959267,749.57385L40.785316,750.01874L40.784874,749.97314L40.784874,749.97327C40.72332,743.7,40.649178,737.1895,42.28118,733.4194L42.28118,733.4194C43.985855,729.4813,47.50154,728.53815,50.662415,727.6624C51.00315,727.568,51.35589,727.7677,51.45029,728.10846C51.544693,728.4492,51.344994,728.8019,51.004257,728.8963L51.004257,728.8963C47.768456,729.7927,44.88747,730.62164,43.456207,733.928L43.456207,733.928C41.95976,737.385,42.00228,743.5477,42.06521,749.9607L42.06521,749.9608L42.065643,750.0065C42.06727,750.1716,42.004936,750.33105,41.891697,750.45135L41.891697,750.45135L36.041183,756.66833L36.214275,756.2631C35.725414,765.58466,35.301136,774.4174,37.40805,777.47546L37.40805,777.47546C38.049004,778.4058,38.952045,778.7842,40.169605,778.86475L40.1696,778.86475C40.247013,778.8698,40.32617,778.8738,40.406166,778.87646L40.406197,778.87646C41.49555,778.9136,42.7503,778.73346,44.17741,778.5263L44.17741,778.5263C45.800644,778.29065,47.615063,778.0255,49.471706,778.0887L49.47175,778.0887C49.653465,778.09485,49.833824,778.10406,50.015213,778.1161L50.015156,778.1161C51.432163,778.20984,52.853546,778.47144,54.193485,778.7174L54.19349,778.7174C55.474236,778.9525,56.67233,779.1716,57.787346,779.2453L57.78735,779.2453C59.87933,779.38367,61.513676,779.0033,62.667194,777.3563L62.667206,777.3563C65.39601,773.46027,65.660355,762.5054,64.70784,757.4245L64.70783,757.4245C64.16383,754.5227,63.320694,754.0601,62.71509,754.02L62.71506,754.02C62.095455,753.979,61.352,754.3035,60.393845,754.7453C60.159935,754.8531,59.88418,754.8103,59.694008,754.63654C59.50385,754.4628,59.436314,754.1921,59.522636,753.94934L59.522636,753.94934L61.324944,748.8819C61.42107,748.61163,61.685215,748.43835,61.9714,748.4577L61.9714,748.4577L163.77533,755.3562C164.1281,755.3801,164.39468,755.6854,164.37079,756.0382C164.34688,756.3909,164.04153,756.65753,163.68878,756.6336 Z"/> </g> <g style="fill:rgb(0,0,0); fill-opacity:1.0; stroke-linejoin: miter"> <path d="M49.93867,728.16327L49.93867,728.16327L170.25328,724.4878L169.6355,725.18835C169.34572,722.1419,169.03741,718.9581,169.44482,716.65265L169.44482,716.65265C169.86504,714.27496,171.03606,712.84454,172.10858,711.52423L171.96576,711.9033C172.27489,703.83356,172.56665,695.3273,175.27046,691.86786L175.27046,691.86786C176.74707,689.97864,178.86974,689.5942,181.11465,689.85583L181.11467,689.85583C183.29189,690.1096,185.72597,690.9847,188.06468,691.822C188.39757,691.9411,188.5708,692.30756,188.45163,692.64044C188.33247,692.9733,187.96602,693.14655,187.63312,693.0274L187.63312,693.0274C185.25314,692.17535,182.9679,691.3609,180.96643,691.1275L180.96646,691.12756C178.94771,690.89233,177.36868,691.2625,176.2793,692.6563L176.2793,692.6563C173.90192,695.6981,173.5649,703.60706,173.24521,711.95233C173.2399,712.0908,173.18979,712.2239,173.10239,712.3315L173.10239,712.3315C172.03342,713.64746,171.06311,714.8529,170.70567,716.8754L170.70569,716.8754C170.33557,718.9699,170.61365,721.94995,170.91014,725.0671C170.92691,725.2432,170.87001,725.4185,170.75298,725.55115C170.63594,725.6839,170.46922,725.7622,170.29237,725.7676L170.29237,725.7676L49.977768,729.4431C49.624363,729.4539,49.32912,729.17615,49.31832,728.82275C49.307533,728.46936,49.585266,728.1741,49.93867,728.16327 Z"/> </g> <g style="fill:rgb(0,0,0); fill-opacity:1.0; stroke-linejoin: miter"> <path d="M186.54404,692.22363L186.54404,692.22363C186.3233,683.55505,186.09244,674.7242,187.1998,670.1156L187.1998,670.1156C188.01674,666.7157,189.5977,665.44354,191.4702,664.9169L191.47021,664.9169C192.18262,664.71655,192.92088,664.6282,193.60036,664.5456L193.58372,664.54785L193.58417,664.5478L193.0381,665.16113L193.44713,652.0223C193.45572,651.7461,193.64055,651.5066,193.90552,651.4283L193.90552,651.4283L199.74266,649.7025L199.28409,650.30444L199.556,635.7786C199.56262,635.4251,199.85457,635.1439,200.20807,635.1505C200.56158,635.1571,200.84279,635.44904,200.83618,635.80255L200.83618,635.80255L200.56424,650.3284C200.55902,650.6076,200.37344,650.8512,200.10567,650.93036L200.10567,650.93036L194.26851,652.6561L194.7269,652.06213L194.31787,665.201C194.30823,665.5106,194.07826,665.7689,193.7718,665.81433L193.7718,665.81433L193.77136,665.8144L193.75473,665.81665C193.0576,665.9013,192.41843,665.9803,191.81685,666.1495L191.81685,666.1495C190.44766,666.53455,189.16792,667.4051,188.44475,670.41473L188.44475,670.41473C187.38745,674.81494,187.60071,683.42175,187.824,692.19104C187.83301,692.5445,187.55379,692.8383,187.20033,692.8473C186.84688,692.8563,186.55304,692.577,186.54404,692.22363 Z"/> </g> <g style="fill:rgb(0,0,0); fill-opacity:1.0; stroke-linejoin: miter"> <path d="M199.90024,636.6455L199.90024,636.6455L191.48395,635.5839C191.18129,635.5457,190.9476,635.2993,190.92554,634.99506L190.92554,634.99506L190.30783,626.47504L191.38313,626.89685C186.23932,631.6967,181.14413,636.45337,176.94629,641.99945L176.94629,641.99945C172.74757,647.54675,169.43503,653.89886,166.09372,660.3095C165.9303,660.6231,165.54366,660.7448,165.23012,660.5814C164.91658,660.41797,164.79489,660.0313,164.95831,659.7178L164.95831,659.7178C168.29015,653.32526,171.65054,646.8746,175.92537,641.22675L175.92537,641.22675C180.20102,635.5779,185.37955,630.74774,190.50958,625.9607C190.68982,625.79254,190.95064,625.7428,191.18015,625.8328C191.40964,625.9228,191.56705,626.13666,191.58488,626.3825L191.58488,626.3825L192.20259,634.90247L191.64418,634.31354L200.06046,635.3752C200.41125,635.4194,200.65976,635.7397,200.61551,636.09045C200.57126,636.4412,200.25102,636.68976,199.90024,636.6455 Z"/> </g> <g style="fill:rgb(0,0,0); fill-opacity:1.0; stroke-linejoin: miter"> <path d="M165.60403,660.4635L165.60403,660.4635L167.81844,661.9501C168.09428,662.13525,168.18262,662.50073,168.02182,662.79144L168.02182,662.79144L162.39185,672.9714C162.35168,673.044,162.29779,673.1081,162.23317,673.16016L162.23317,673.16016L150.51125,682.60034L150.68134,682.38995L141.47626,700.645C141.34576,700.9038,141.0577,701.0426,140.77396,700.98346L140.77396,700.98346L138.54424,700.51855C138.34721,700.47754,138.18097,700.3462,138.09543,700.164C138.00987,699.9818,138.01497,699.77,138.10918,699.59216L138.10918,699.59216L151.85278,673.64734L151.84029,673.6722L159.60832,657.32635C159.72919,657.0721,160.00203,656.9266,160.28056,656.9679L160.28056,656.9679L163.0657,657.3814L162.4025,657.7216C165.8157,651.09106,169.25536,644.40625,173.70076,638.3703L173.70076,638.3703C178.14568,632.33496,183.58566,626.96265,188.98175,621.63184C189.23328,621.3833,189.63861,621.3858,189.8871,621.6373C190.13559,621.88885,190.13312,622.2942,189.88159,622.54266L189.88159,622.54266C184.47223,627.88666,179.1068,633.1891,174.73172,639.1296L174.73172,639.1296C170.35716,645.06934,166.96217,651.66144,163.5409,658.3076C163.41544,658.55133,163.14879,658.6881,162.87769,658.6479L162.87769,658.6479L160.09253,658.23444L160.76477,657.876L152.99673,674.2218C152.99275,674.23016,152.98859,674.23846,152.98424,674.24664L152.98424,674.24664L139.24062,700.1915L138.80556,699.26514L141.0353,699.73004L140.333,700.0685L149.53807,681.8135C149.57913,681.73206,149.63712,681.66034,149.70815,681.6031L149.70815,681.6031L161.43007,672.16296L161.2714,672.3517L166.90137,662.1718L167.10477,663.0132L164.89038,661.52655C164.59682,661.32947,164.5186,660.93176,164.71568,660.6382C164.91275,660.34467,165.31049,660.2664,165.60403,660.4635 Z"/> </g> <g style="fill:rgb(0,0,0); fill-opacity:1.0; stroke-linejoin: miter"> <path d="M188.91321,622.49414L188.91321,622.49414L179.64989,616.4391L179.99138,616.5434L136.14308,615.94214C135.78955,615.93726,135.50688,615.6467,135.51173,615.2932C135.51659,614.93964,135.80711,614.657,136.16064,614.6618L136.16064,614.6618L180.00893,615.2631C180.13036,615.2648,180.24878,615.3009,180.35043,615.3673L180.35043,615.3673L189.61375,621.42236C189.9097,621.61584,189.99278,622.0126,189.79933,622.30853C189.60588,622.6045,189.20915,622.68756,188.91321,622.49414 Z"/> </g> <g style="fill:rgb(0,0,0); fill-opacity:1.0; stroke-linejoin: miter"> <path d="M136.74954,615.7991L136.74954,615.7991C133.65027,616.83484,130.44672,617.91034,126.69883,617.9104L126.698784,617.91034C126.40339,617.91034,126.10472,617.9037,125.80234,617.8899L125.802315,617.88983C121.69302,617.70166,116.944954,616.1804,112.31149,614.7006L112.58818,614.7257C109.29027,615.1512,105.93589,615.58496,103.0747,615.58496L103.0747,615.58496C100.787766,615.585,98.70743,615.31067,97.199005,614.4498L97.199005,614.4498C93.7724,612.4944,93.708015,607.77026,93.59386,603.6812L93.789635,604.1244L83.72532,594.4286L84.426025,594.5541C83.83746,594.8115,83.08992,595.14954,82.31128,595.14954L82.31129,595.14954C80.85692,595.14954,79.688156,594.04266,78.652435,591.3244L78.65244,591.3244C76.98425,586.94635,75.33157,577.5368,73.69693,568.2484C73.63565,567.9002,73.86825,567.56824,74.21647,567.50696C74.5647,567.4457,74.89665,567.6783,74.95793,568.0265L74.95793,568.0265C76.6062,577.3922,78.236374,586.63654,79.84891,590.8685L79.84891,590.8685C80.85426,593.5071,81.725784,593.8692,82.311295,593.8692L82.311295,593.86914C82.771614,593.86914,83.262566,593.66547,83.91295,593.38104C84.15039,593.2771,84.42702,593.32666,84.613655,593.50653L84.613655,593.50653L94.67798,603.2023C94.798775,603.3186,94.86907,603.4778,94.87375,603.6455L94.87375,603.6455C94.99667,608.0489,95.16943,611.81744,97.83362,613.33777L97.83362,613.33777C99.040306,614.0264,100.83852,614.3046,103.074684,614.30457L103.074684,614.30457C105.83665,614.3046,109.10257,613.8844,112.42435,613.4559C112.5173,613.44385,112.611755,613.45245,112.701035,613.4809L112.701035,613.4809C117.38623,614.97723,121.956635,616.43207,125.860886,616.61084L125.86087,616.6108C126.14367,616.6238,126.42256,616.62994,126.69886,616.63L126.69882,616.63C130.20917,616.63,133.2244,615.62714,136.34369,614.58466C136.67905,614.4726,137.04173,614.65356,137.15381,614.9889C137.26587,615.3242,137.08487,615.68695,136.74954,615.7991 Z"/> </g> <g style="fill:rgb(0,0,0); fill-opacity:1.0; stroke-linejoin: miter"> <path d="M73.64127,568.43097L73.64127,568.43097C73.79915,554.16736,73.95553,539.9537,72.1745,525.60834L72.1745,525.60834C70.39323,511.26117,66.67235,496.7682,62.938217,482.22742L62.927773,482.1791C58.41735,456.54575,53.913223,430.95132,45.717163,403.45456L45.717163,403.45456C42.349136,392.15518,38.35637,380.5304,34.5785,369.53162L34.5785,369.53162C31.19609,359.68423,27.984238,350.3337,25.55545,342.1854L25.55545,342.1854C24.096893,337.29218,22.916878,332.81943,22.15184,328.92606L22.15184,328.92606C18.666473,311.18848,23.806732,305.45923,28.937622,299.821C29.175583,299.5595,29.580482,299.54044,29.841995,299.7784C30.103485,300.01636,30.122566,300.42126,29.884598,300.68277L29.884598,300.68277C24.948189,306.10733,20.020988,311.44107,23.40821,328.67917L23.40821,328.67917C24.1622,332.5163,25.329498,336.94498,26.782486,341.81964L26.782486,341.81964C29.202301,349.93784,32.40445,359.26074,35.789436,369.11566L35.789436,369.11566C39.56566,380.10965,43.56742,391.76004,46.944206,403.0888L46.944206,403.0888C55.16427,430.66614,59.67964,456.33096,64.1888,481.9572L64.17837,481.90894C67.90855,496.4343,71.65199,511.00784,73.44513,525.45056L73.44513,525.45056C75.23851,539.8955,75.079315,554.195,74.921585,568.4452C74.91767,568.7987,74.62788,569.08215,74.27434,569.07825C73.920784,569.0743,73.63736,568.7845,73.64127,568.43097 Z"/> </g> <g style="fill:rgb(0,0,0); fill-opacity:1.0; stroke-linejoin: miter"> <path d="M27.844742,301.00464L27.844742,301.00464C32.341393,294.98358,36.971214,288.75464,43.5962,286.0853L43.5962,286.08533C50.202396,283.42352,58.711422,284.33878,66.98721,285.21347C67.00918,285.21582,67.03099,285.21924,67.0526,285.22385L67.0526,285.22385L92.73604,290.66455C93.08194,290.73785,93.30294,291.07764,93.22967,291.42355C93.15639,291.76944,92.81659,291.99045,92.47069,291.91718L92.47069,291.91718L66.78725,286.47644L66.85263,286.48676C58.470955,285.60086,50.32264,284.75546,44.074715,287.2729L44.07471,287.2729C37.845627,289.78275,33.4247,295.67285,28.870617,301.77078C28.659054,302.0541,28.257893,302.1122,27.974606,301.90067C27.691319,301.68912,27.633175,301.28793,27.844742,301.00464 Z"/> </g> <g style="fill:rgb(0,0,0); fill-opacity:1.0; stroke-linejoin: miter"> <path d="M92.3153,290.81656L92.31528,290.8166L92.33826,290.7721L92.33828,290.77203C94.135765,287.2908,95.9572,283.76422,97.627686,281.27356L97.627686,281.27356C99.32172,278.7478,100.85901,277.28778,102.358475,275.86255L102.180916,276.49142L100.22505,269.15027C100.13403,268.8086,100.337204,268.45786,100.678856,268.36685C101.02051,268.27582,101.37126,268.47897,101.46228,268.82062L101.46228,268.82062L103.418144,276.16177C103.47844,276.3881,103.41034,276.62927,103.24057,276.79062L103.24057,276.79062C101.75249,278.20502,100.30211,279.58466,98.691055,281.98676L98.691055,281.98676C97.07047,284.40298,95.28573,287.85443,93.47597,291.35947L93.47598,291.35944L93.45301,291.40393C93.29077,291.71814,92.9046,291.84134,92.59043,291.67914C92.27627,291.5169,92.15308,291.13074,92.3153,290.81656 Z"/> </g> <g style="fill:rgb(0,0,0); fill-opacity:1.0; stroke-linejoin: miter"> <path d="M100.866196,269.7845L100.86606,269.78445L100.84843,269.778L100.84856,269.77808C95.4358,267.80075,89.98898,265.80844,81.54407,260.64368L81.54407,260.64368C73.1291,255.49721,61.634834,247.13924,55.487206,238.36624L55.487206,238.36624C49.307053,229.54675,48.56589,220.36023,47.828663,211.3565L47.838367,211.42679C46.497536,204.55057,45.098633,197.45752,48.37737,189.97241L48.37737,189.97241C51.625317,182.55762,59.45639,174.80759,67.1415,167.18764C67.39258,166.93869,67.79791,166.94043,68.04686,167.1915C68.295815,167.44255,68.29408,167.84792,68.04301,168.09686L68.04301,168.09686C60.28718,175.78697,52.677433,183.34688,49.55018,190.48615L49.55018,190.48615C46.453754,197.55502,47.745384,204.25998,49.095085,211.18172C49.099617,211.20496,49.102863,211.22842,49.10479,211.252L49.10479,211.252C49.844276,220.28333,50.579845,229.13196,56.53578,237.63144L56.53578,237.63144C62.524292,246.1774,73.82575,254.42242,82.21209,259.55136L82.21209,259.55136C90.55033,264.6509,95.90528,266.6091,101.287895,268.5754L101.288025,268.57544L101.305664,268.5819C101.637634,268.7032,101.8085,269.07074,101.68719,269.40283C101.56587,269.73495,101.19829,269.90582,100.866196,269.7845 Z"/> </g> <g style="fill:rgb(0,0,0); fill-opacity:1.0; stroke-linejoin: miter"> <path d="M66.88963,167.57935L66.88963,167.57935L76.67851,158.15106L77.23191,159.24295C73.669174,159.8602,69.68955,160.58162,67.92045,159.794L67.92045,159.79402C67.738434,159.713,67.56505,159.61143,67.410194,159.48337L67.41021,159.48338C65.639786,158.01923,67.81967,154.52168,69.16412,152.17197C69.18945,152.12769,69.219986,152.0866,69.25506,152.04958L69.25493,152.04971L69.275246,152.02826L69.27538,152.02812C70.953606,150.25687,72.653595,148.46565,75.75893,145.95387L75.75893,145.95387C78.85177,143.4522,83.44017,140.1494,88.370636,139.01068L88.370636,139.01068C93.306694,137.8707,98.51219,138.9214,103.54549,139.92725C103.8922,139.99654,104.117096,140.33376,104.047806,140.68047C103.978516,141.02719,103.64128,141.25209,103.29457,141.1828L103.29457,141.1828C98.2,140.1647,93.27759,139.1915,88.65875,140.25824L88.65875,140.25824C84.03444,141.32623,79.64067,144.46088,76.56414,146.94937L76.56414,146.94937C73.52472,149.40784,71.87029,151.15096,70.204834,152.90875L70.20497,152.90862L70.18465,152.93005L70.27545,152.80783C68.48452,155.93788,67.52899,157.9201,68.226204,158.4967L68.22621,158.4967C68.27578,158.5377,68.34509,158.58153,68.44119,158.6243L68.44121,158.62431C69.75136,159.20761,73.17384,158.64656,77.013336,157.98135C77.29048,157.93335,77.566505,158.07184,77.693665,158.32274C77.82082,158.57362,77.76932,158.87811,77.566734,159.07326L77.566734,159.07326L67.77786,168.50154C67.52321,168.74681,67.11793,168.73921,66.87265,168.48456C66.62738,168.2299,66.63498,167.82462,66.88963,167.57935 Z"/> </g> <g style="fill:rgb(0,0,0); fill-opacity:1.0; stroke-linejoin: miter"> <path d="M103.183586,140.10056L103.183586,140.10056C107.38791,139.71019,111.65974,139.31174,116.288284,139.79486L116.28829,139.79486C120.90699,140.27698,125.861725,141.6354,130.75122,142.97426L130.5785,142.95154C132.4544,142.94086,134.34048,142.93767,138.95361,144.38258L138.95361,144.38258C143.52222,145.81357,150.81268,148.67981,158.06546,151.53082L157.35596,152.55554L157.34933,152.5482L157.34924,152.54808C156.79214,151.93044,155.96776,151.05411,155.83673,150.37326L155.83658,150.3725C155.83583,150.36859,155.83461,150.36195,155.8339,150.35791L155.8339,150.35802C155.7508,149.89645,155.94633,149.44156,156.44743,149.23294L156.44743,149.23296C156.54414,149.19269,156.64465,149.16483,156.74406,149.1457L156.74405,149.1457C157.33664,149.03165,158.2857,149.16315,159.64185,149.50133L159.64185,149.50133C164.15326,150.62633,174.54153,154.4318,184.86157,158.21112C185.1936,158.3327,185.36417,158.70041,185.24258,159.03241C185.121,159.36443,184.7533,159.535,184.4213,159.41342L184.4213,159.41342C174.05502,155.61716,163.75755,151.84724,159.33206,150.74367L159.33206,150.74367C157.94955,150.39893,157.26355,150.34961,156.98604,150.40302L156.98602,150.40303C156.95425,150.40912,156.94028,150.41469,156.93954,150.41498L156.93954,150.415C157.03891,150.37363,157.10849,150.21146,157.09402,150.13116L157.09406,150.13129C157.09396,150.1308,157.09425,150.13237,157.09421,150.1321L157.09406,150.1313C157.13858,150.36269,157.58371,150.89636,158.3,151.69052L158.29991,151.6904L158.30653,151.69774C158.5056,151.91844,158.52669,152.24692,158.35754,152.49112C158.18842,152.73534,157.8735,152.83113,157.59705,152.72244L157.59705,152.72244C150.32272,149.86298,143.08493,147.01833,138.57089,145.60443L138.57089,145.60443C134.10098,144.20438,132.34848,144.22188,130.58578,144.23192C130.52745,144.23224,130.46935,144.22461,130.41309,144.2092L130.41309,144.2092C125.49864,142.86351,120.64996,141.5375,116.155365,141.06834L116.155365,141.06834C111.670746,140.60023,107.52016,140.9838,103.301956,141.37546C102.949905,141.40814,102.63801,141.14925,102.60532,140.7972C102.57263,140.44514,102.831535,140.13324,103.183586,140.10056 Z"/> </g> <g style="fill:rgb(0,0,0); fill-opacity:1.0; stroke-linejoin: miter"> <path d="M184.4195,158.54245L184.41931,158.5425L184.46025,158.53111L184.46042,158.53107C190.39519,156.88066,196.53279,155.16507,200.86392,155.71661L200.86392,155.71661C205.32016,156.28406,207.82465,159.22166,210.16446,161.93604L209.71054,161.71457C214.81007,161.96187,220.04736,162.20955,224.46902,163.91577L224.46902,163.91577C228.90097,165.62595,232.4725,168.78421,235.94406,171.84529L235.87914,171.79507C249.90572,181.27533,264.0689,190.84027,270.81613,198.89737L270.81613,198.89738C277.66797,207.07936,276.92468,213.74673,276.2048,220.2188C276.1657,220.5702,275.84918,220.82338,275.49774,220.78432C275.14636,220.74524,274.8932,220.42868,274.93225,220.07727L274.93225,220.07727C275.64383,213.68013,276.33197,207.47826,269.8345,199.71942L269.8345,199.71944C263.23254,191.8358,249.26555,182.38808,235.16216,172.8559C235.13947,172.84056,235.11777,172.82378,235.09723,172.80566L235.09723,172.80566C231.5935,169.7162,228.18991,166.72398,224.0081,165.11034L224.0081,165.11034C219.81607,163.49272,214.80115,163.24332,209.64854,162.99347C209.47328,162.98497,209.3092,162.9049,209.19464,162.77202L209.19464,162.77202C206.81934,160.01646,204.60876,157.48419,200.70218,156.98674L200.70218,156.98674C196.6895,156.47575,190.85197,158.08261,184.80347,159.76465L184.80363,159.76459L184.76271,159.776C184.42189,159.87077,184.06894,159.67142,183.97423,159.33078C183.8795,158.99013,184.07884,158.63719,184.4195,158.54245 Z"/> </g> <g style="fill:rgb(0,0,0); fill-opacity:1.0; stroke-linejoin: miter"> <path d="M275.95004,220.68544L275.95004,220.68544C269.23608,236.0979,262.5035,251.55461,256.7039,262.0831L256.7039,262.0831C253.41663,268.0507,250.43074,272.4329,247.45305,276.80368L247.45305,276.80368C245.16739,280.1586,242.88835,283.50418,240.46928,287.5669L240.46928,287.5669C234.89064,296.93585,228.55643,310.1346,222.2036,323.37344C222.05063,323.69223,221.66821,323.82663,221.34944,323.67368C221.03069,323.5207,220.89627,323.13828,221.04924,322.81952L221.04924,322.81952C227.39258,309.6004,233.75449,296.34122,239.36914,286.9118L239.36914,286.9118C241.81068,282.8114,244.11028,279.43622,246.3949,276.0828L246.3949,276.0828C249.3718,271.71313,252.32706,267.37497,255.5824,261.4653L255.5824,261.4653C261.34656,251.0012,268.05258,235.60866,274.77618,220.1741C274.9174,219.84998,275.29462,219.70164,275.61877,219.84285C275.94293,219.98407,276.09125,220.3613,275.95004,220.68544 Z"/> </g> <g style="fill:rgb(0,0,0); fill-opacity:1.0; stroke-linejoin: miter"> <path d="M222.7777,319.88287L222.7777,319.88287L228.55823,327.97507L228.20331,327.7289L236.52908,329.9642C236.77727,330.03082,236.96155,330.2394,236.9971,330.49393L236.9971,330.49393L238.5404,341.53912L238.42886,341.2578C248.58417,355.60248,258.7557,369.96967,267.43314,384.279L267.43314,384.279C273.9571,395.03717,279.633,405.7567,283.54865,413.15152L283.54865,413.15152C284.84253,415.59512,285.9422,417.67178,286.8177,419.26923L286.8177,419.26923C289.31268,423.82153,289.95547,424.42587,291.4718,425.8993L291.47177,425.8993C292.11243,426.5218,292.90787,427.29468,294.03476,428.5344L294.03476,428.5344C297.91263,432.80066,305.7433,442.63013,313.54742,452.42566C313.7677,452.7022,313.72214,453.105,313.44562,453.32532C313.16907,453.5456,312.7663,453.50006,312.546,453.22348L312.546,453.22348C304.72452,443.40622,296.9289,433.62207,293.08728,429.39566L293.08728,429.39566C291.98734,428.18555,291.2142,427.4343,290.57953,426.81757L290.5795,426.81757C288.95007,425.23422,288.23492,424.51904,285.6949,419.88458L285.6949,419.88458C284.81354,418.27652,283.70972,416.19186,282.41708,413.75067L282.41708,413.75067C278.5003,406.35367,272.8407,395.6655,266.33832,384.94293L266.33832,384.94293C257.68863,370.67932,247.54457,356.34998,237.38387,341.99762C237.32475,341.91412,237.2865,341.81763,237.27234,341.7163L237.27234,341.7163L235.72903,330.6711L236.19705,331.20084L227.8713,328.96548C227.72803,328.92703,227.60257,328.84,227.51636,328.7193L227.51636,328.7193L221.73582,320.6271C221.5303,320.33945,221.59692,319.93958,221.88463,319.73407C222.17233,319.52856,222.57217,319.59515,222.7777,319.88287 Z"/> </g> <g style="fill:rgb(0,0,0); fill-opacity:1.0; stroke-linejoin: miter"> <path d="M313.36633,451.71964L313.36633,451.71964L322.92307,454.03015L322.5767,454.04294C330.56143,451.47644,338.6759,448.86322,343.78732,448.4889L343.78732,448.4889C348.6675,448.13147,350.89896,449.8102,354.31537,452.3675L354.31537,452.36746C354.5982,452.57922,354.88657,452.79507,355.18848,453.01892L355.18848,453.01892C359.12656,455.93842,365.00714,459.9429,370.90582,463.95956C371.0822,464.07965,371.18713,464.27972,371.18567,464.4931L371.18567,464.4931L371.0813,479.751L370.46933,479.10703L440.3851,482.19373C440.4893,482.19833,440.5908,482.22833,440.6808,482.28113L440.6808,482.28113L444.50934,484.52695L444.14844,484.44003L451.1274,484.03647C451.48038,484.01605,451.78308,484.28564,451.80347,484.6386C451.8239,484.9916,451.5543,485.2943,451.20132,485.3147L451.20132,485.3147L444.22235,485.7183C444.09613,485.7256,443.97052,485.6953,443.86148,485.63135L443.86148,485.63135L440.03293,483.38553L440.3286,483.4729L370.4129,480.38617C370.0689,480.371,369.79858,480.0865,369.80093,479.74225L369.80093,479.74225L369.90533,464.48434L370.18518,465.01785C364.29575,461.00754,358.3895,456.9859,354.42596,454.04745L354.42596,454.04745C354.12283,453.82275,353.8291,453.60287,353.5481,453.39252L353.5481,453.39252C350.16428,450.85962,348.26306,449.44495,343.88086,449.76584L343.88086,449.76584C338.9618,450.1261,331.03018,452.67065,322.9685,455.2619C322.85645,455.29794,322.7366,455.30234,322.6222,455.27472L322.6222,455.27472L313.06543,452.96417C312.72177,452.88107,312.51053,452.53513,312.59363,452.19147C312.67673,451.84778,313.02267,451.63654,313.36633,451.71964 Z"/> </g> <g style="fill:rgb(0,0,0); fill-opacity:1.0; stroke-linejoin: miter"> <path d="M450.97995,484.07352L450.97995,484.07352L510.7912,394.2007C510.9067,394.02716,511.09952,393.9207,511.30792,393.91544L511.30792,393.91544L555.3025,392.80112C555.4743,392.79675,555.6406,392.8617,555.7641,392.98123L555.7641,392.98123L559.37213,396.4757C559.59515,396.69174,559.63104,397.03662,559.4573,397.2939L559.4573,397.2939L484.55145,508.194C484.35355,508.48703,483.95563,508.56412,483.66263,508.3662C483.36963,508.16833,483.29254,507.77036,483.49042,507.47736L483.49042,507.47736L558.3962,396.57724L558.4813,397.39545L554.8733,393.90097L555.3349,394.08112L511.34036,395.19537L511.85712,394.91006L452.04587,484.78293C451.85,485.07727,451.45258,485.1571,451.15823,484.96118C450.86386,484.76532,450.7841,484.3679,450.97995,484.07352 Z"/> </g> <g style="fill:rgb(0,0,0); fill-opacity:1.0; stroke-linejoin: miter"> <path d="M483.90103,507.1112L483.90103,507.1112L506.6983,518.4301C506.71515,518.4385,506.73163,518.4476,506.74768,518.4574L506.74768,518.4574C512.7729,522.143,518.94244,525.9077,522.4829,530.1985L522.4829,530.1985C526.05963,534.5333,526.93274,539.36804,527.7842,544.02496C527.8478,544.37274,527.6174,544.7063,527.2696,544.76984C526.92175,544.83344,526.58826,544.603,526.52466,544.25525L526.52466,544.25525C525.6676,539.5674,524.8321,535.0574,521.49524,531.01337L521.49524,531.01337C518.122,526.9252,512.17303,523.27704,506.07956,519.5497L506.1289,519.5769L483.33163,508.25803C483.01492,508.1008,482.88568,507.7166,483.04288,507.39993C483.20013,507.08325,483.58432,506.95398,483.90103,507.1112 Z"/> </g> <g style="fill:rgb(0,0,0); fill-opacity:1.0; stroke-linejoin: miter"> <path d="M527.49524,543.5317L527.49524,543.5317C529.7399,561.53424,531.9905,579.5778,532.3358,596.436L532.3358,596.436C532.6813,613.29877,531.1205,628.96326,529.56445,644.58636L529.56744,644.5363L527.84845,726.67615C527.841,727.02966,527.54846,727.3103,527.195,727.30286C526.8415,727.2955,526.5609,727.00287,526.5683,726.6494L526.5683,726.6494L528.28735,644.5096C528.2877,644.4928,528.2887,644.47614,528.29034,644.4595L528.29034,644.4595C529.8473,628.8277,531.39935,613.2365,531.0557,596.4622L531.0557,596.4622C530.7119,579.68256,528.47125,561.7075,526.2247,543.6901C526.1809,543.3393,526.4299,543.01935,526.7807,542.9756C527.1316,542.9319,527.4514,543.18085,527.49524,543.5317 Z"/> </g> <g style="fill:rgb(0,0,0); fill-opacity:1.0; stroke-linejoin: miter"> <path d="M528.09595,726.6636L528.09595,726.6636L528.06775,734.1059L527.8212,733.5986L527.82446,733.60114L527.82446,733.60114L527.8277,733.60364L527.8277,733.60364C528.44977,734.08875,529.07886,734.57935,529.69714,735.06464L529.69714,735.06464C535.8254,739.8745,541.9269,744.9186,542.24255,749.4075L542.24255,749.4075C542.60065,754.49805,535.7121,758.3433,529.35876,761.0256L529.35876,761.0256C522.7711,763.80676,515.94305,765.6475,506.72977,766.32074L506.72977,766.32074C497.54245,766.99207,485.97656,766.5015,474.46384,766.0142C474.11057,765.9993,473.83633,765.7008,473.8513,765.34753C473.8662,764.9943,474.16473,764.72003,474.51797,764.735L474.51797,764.735C486.0555,765.2233,497.53867,765.70856,506.63647,765.04376L506.63647,765.04376C515.70795,764.3809,522.3994,762.57385,528.8608,759.846L528.8608,759.846C535.5565,757.0192,541.24646,753.49445,540.96533,749.4973L540.96533,749.4973C540.6997,745.7203,535.2841,741.07733,528.9066,736.07184L528.9066,736.07184C528.29047,735.5882,527.6625,735.09845,527.04034,734.61334L527.04034,734.61334L527.0371,734.61084L527.0371,734.61084L527.0339,734.6083C526.8776,734.4865,526.7866,734.2992,526.78735,734.1011L526.78735,734.1011L526.81555,726.65875C526.8169,726.3052,527.1046,726.01965,527.4582,726.021C527.81177,726.02234,528.0973,726.31006,528.09595,726.6636 Z"/> </g> <g style="fill:rgb(0,0,0); fill-opacity:1.0; stroke-linejoin: miter"> <path d="M478.82114,764.92566L478.82114,764.92566C492.69717,776.6311,506.4614,788.2332,519.6106,793.5551L519.6106,793.5551C527.74255,796.8463,535.65936,797.7416,542.9475,798.56274L542.9475,798.56274C547.3996,799.0644,551.63904,799.54083,555.5004,800.5364L555.5004,800.5364C565.6124,803.14325,573.29614,809.3682,574.4936,815.71924L574.4936,815.71924C574.5778,816.16614,574.6297,816.6136,574.64966,817.05945L574.6496,817.05945C574.9168,823.03674,569.5153,828.49976,560.7742,831.9249L560.7742,831.9249C551.3392,835.6221,537.67957,837.0952,524.1539,838.5591C524.12213,838.5625,524.09015,838.5636,524.0582,838.56226L524.0583,838.5622L523.99097,838.55945L523.9909,838.5594C510.70148,838.00336,497.36032,837.44336,485.2292,835.3165L485.2292,835.3165C473.07132,833.18494,462.1434,829.4824,451.2658,825.7981C450.93094,825.6847,450.7514,825.3213,450.86484,824.9863C450.97824,824.6515,451.34167,824.472,451.67657,824.5854L451.67657,824.5854C462.56516,828.27344,473.4036,831.9433,485.45032,834.05536L485.45032,834.05536C497.48297,836.1649,510.7358,836.7232,524.04443,837.28015L524.0444,837.28015L524.1117,837.2829L524.0161,837.28613C537.60895,835.815,551.0681,834.3531,560.30707,830.73285L560.30707,830.73285C568.9364,827.3514,573.59845,822.2158,573.3705,817.11664L573.3705,817.11664C573.3533,816.7317,573.3085,816.34436,573.2354,815.9564L573.23535,815.9564C572.17694,810.3428,565.11957,804.33844,555.1808,801.7762L555.1808,801.7762C551.4227,800.8074,547.27747,800.3391,542.80414,799.8351L542.80414,799.8351C535.52954,799.0154,527.4465,798.1078,519.13025,794.74194L519.13025,794.74194C505.75055,789.32684,491.81705,777.5638,477.99557,765.9043C477.72528,765.67633,477.69104,765.27246,477.919,765.0022C478.14703,764.73193,478.5509,764.6977,478.82114,764.92566 Z"/> </g> <g style="fill:rgb(0,0,0); fill-opacity:1.0; stroke-linejoin: miter"> <path d="M452.7951,825.296L452.7951,825.296L450.48996,828.83685C450.3441,829.0609,450.07437,829.17084,449.81345,829.1123L449.81345,829.1123C433.84125,825.5329,417.69745,821.9222,409.63934,817.4558L409.63934,817.4558C401.35568,812.8645,401.46475,807.30304,401.57825,802.0161C401.57892,801.98444,401.58194,801.9529,401.58728,801.92163L401.58728,801.92163C403.1485,792.8218,404.71704,783.6757,406.2989,777.6677L406.2989,777.6677C407.89105,771.6204,409.50153,768.73145,411.0971,765.8718C411.26938,765.5631,411.65936,765.45245,411.9681,765.6247C412.27686,765.797,412.3875,766.18695,412.2152,766.4957L412.2152,766.4957C410.6456,769.3087,409.09088,772.0922,407.53708,777.9937L407.53708,777.9937C405.97296,783.9343,404.41476,793.0132,402.84927,802.1381L402.8583,802.04364C402.74738,807.21313,402.63202,812.1081,410.26004,816.336L410.26004,816.336C418.11383,820.68896,434.01767,824.26025,450.09344,827.8629L449.41693,828.13837L451.72205,824.59753C451.91498,824.3012,452.31155,824.21735,452.60785,824.4103C452.9042,824.60315,452.988,824.99976,452.7951,825.296 Z"/> </g> <g style="fill:rgb(0,0,0); fill-opacity:1.0; stroke-linejoin: miter"> <path d="M411.49625,766.58417L411.49625,766.58417L400.19815,755.9751C400.03754,755.8243,399.96576,755.60156,400.00812,755.3854L400.00812,755.3854L401.6798,746.8473L401.68008,746.8459C403.5048,737.64026,405.3501,728.3136,407.1446,723.91376L407.1446,723.91376C408.3928,720.8534,409.75375,719.8589,411.3561,719.9676L411.3561,719.9676C411.98657,720.0103,412.5969,720.22687,413.10684,720.4041C413.44083,720.52026,413.61743,720.88513,413.5013,721.21906C413.3852,721.55304,413.02036,721.7296,412.68637,721.6135L412.68637,721.6135C412.1418,721.4242,411.69763,721.2741,411.2695,721.245L411.2695,721.245C410.52292,721.1944,409.515,721.4923,408.33014,724.39734L408.33014,724.39734C406.59515,728.6513,404.7759,737.8126,402.93607,747.0948L402.93634,747.0934L401.26465,755.6314L401.0746,755.04175L412.3727,765.65076C412.63046,765.8928,412.6432,766.298,412.40115,766.5557C412.15912,766.8134,411.75403,766.8262,411.49625,766.58417 Z"/> </g> <g style="fill:rgb(0,0,0); fill-opacity:1.0; stroke-linejoin: miter"> <path d="M412.1394,721.396L412.1394,721.396C411.92514,708.0355,411.70978,694.6357,412.3203,684.85175L412.3203,684.85175C412.93237,675.0431,414.37402,668.8641,415.86267,663.1504L415.86267,663.1504C417.34778,657.4504,418.88354,652.19794,420.4165,646.9551L420.4178,646.9508L420.41846,646.9485L420.59235,647.59814C417.36765,644.55615,413.93115,641.3427,412.95673,637.19696L412.95673,637.19696C411.98743,633.0732,413.48303,628.1239,414.8871,623.4174L415.44702,624.2384C407.49396,623.57117,399.43518,622.8992,391.05322,619.40137L391.05322,619.40137C382.69336,615.91284,374.03796,609.622,365.46497,603.3954C365.1789,603.1876,365.11542,602.7873,365.32318,602.5012C365.53094,602.2151,365.9313,602.1516,366.21738,602.35944L366.21738,602.35944C374.82635,608.6122,383.35297,614.80066,391.54633,618.2198L391.54633,618.2198C399.7174,621.6296,407.58292,622.2937,415.55408,622.9625C415.74622,622.97864,415.92084,623.08044,416.02945,623.23975C416.13806,623.399,416.16916,623.59875,416.11404,623.78345L416.11404,623.78345C414.6756,628.6051,413.3287,633.1837,414.20313,636.904L414.20313,636.904C415.07242,640.60236,418.16574,643.5488,421.47095,646.6668C421.64716,646.833,421.71445,647.0844,421.64484,647.3164L421.64484,647.3164L421.64417,647.3187L421.64545,647.31445C420.11194,652.5592,418.5813,657.7943,417.10168,663.4732L417.10168,663.4732C415.62512,669.1405,414.20337,675.23334,413.5982,684.93146L413.5982,684.93146C412.99152,694.6538,413.20508,707.9953,413.41962,721.3754C413.4253,721.729,413.1433,722.02014,412.7898,722.0258C412.43628,722.0315,412.14508,721.7495,412.1394,721.396 Z"/> </g> <g style="fill:rgb(0,0,0); fill-opacity:1.0; stroke-linejoin: miter"> <path d="M366.92462,603.8176L366.92462,603.8176C363.87845,608.0728,360.73734,612.47626,354.05353,614.992L354.05353,614.992C347.44357,617.4799,337.39343,618.10474,321.2892,618.4551L321.2892,618.4551C305.14447,618.8062,282.789,618.87866,260.44434,618.9511C260.09076,618.9522,259.8032,618.6665,259.80206,618.3129C259.80093,617.9594,260.0866,617.6718,260.4402,617.6707L260.4402,617.6707C282.78934,617.59827,305.1315,617.5258,321.26138,617.175L321.26138,617.175C337.43298,616.82324,347.23944,616.18866,353.6025,613.7937L353.6025,613.7937C359.89175,611.42645,362.8402,607.32355,365.88354,603.0724C366.08932,602.78485,366.48926,602.7186,366.77673,602.9245C367.0642,603.13025,367.13043,603.5302,366.92462,603.8176 Z"/> </g> <g style="fill:rgb(0,0,0); fill-opacity:1.0; stroke-linejoin: miter"> <path d="M260.69556,619.2266L260.69556,619.2266L258.2921,618.43256L259.12637,617.73175L260.1878,624.9647L259.8698,624.5007L262.57996,626.03516C262.76797,626.1416,262.88962,626.33575,262.9034,626.5514L262.9034,626.5514L264.8918,657.64655C264.90588,657.86646,264.8059,658.0781,264.6271,658.20685L264.6271,658.20685C261.42905,660.5103,258.10217,662.918,253.26859,663.541L253.26859,663.541C248.4942,664.1564,242.28107,663.019,236.21753,661.9158C235.94518,661.8662,235.73552,661.6473,235.69788,661.373L235.69788,661.373L231.52495,630.9673C231.49623,630.7581,231.57254,630.54816,231.72891,630.4062L231.72891,630.4062L234.66408,627.7418L234.45558,628.2584L233.9167,620.1665L234.84096,620.697L221.05539,627.56494C220.7389,627.72266,220.35455,627.59393,220.1969,627.2774C220.03922,626.96094,220.16795,626.57654,220.48444,626.41895L220.48444,626.41895L234.27,619.55096C234.46167,619.45544,234.68842,619.46216,234.87416,619.5688C235.05989,619.67535,235.18002,619.8678,235.19424,620.0815L235.19424,620.0815L235.73315,628.1733C235.74612,628.36835,235.66936,628.55853,235.52466,628.6899L235.52466,628.6899L232.58948,631.3543L232.79344,630.7932L236.96638,661.1989L236.44673,660.65607C242.58437,661.77277,248.5723,662.8553,253.10489,662.2712L253.10489,662.2712C257.57825,661.6945,260.66406,659.48334,263.87878,657.1679L263.61404,657.7282L261.6256,626.6331L261.9491,627.1493L259.23895,625.6148C259.067,625.51746,258.94965,625.3462,258.92096,625.15063L258.92096,625.15063L257.85956,617.9176C257.82733,617.698,257.9112,617.4773,258.08118,617.3345C258.25116,617.1917,258.48297,617.1472,258.6938,617.2168L258.6938,617.2168L261.09726,618.01086C261.43298,618.1218,261.6152,618.4839,261.50427,618.8196C261.39337,619.1553,261.0313,619.3375,260.69556,619.2266 Z"/> </g> <g style="fill:rgb(0,0,0); fill-opacity:1.0; stroke-linejoin: miter"> <path d="M224.22949,625.70734L224.22949,625.70734L224.37416,630.74554C224.37927,630.92395,224.30975,631.0964,224.18233,631.2212L224.18233,631.2212L219.08923,636.2122C218.99634,636.3033,218.87793,636.36383,218.74976,636.38586L218.74976,636.38586L215.16109,637.0038L215.69241,636.35516L216.08699,650.61444L215.42941,649.9922L215.43524,649.99207L215.4355,649.992C217.49211,649.93616,220.0389,649.8393,221.34677,652.9414L221.34677,652.9414C222.53226,655.7532,222.6863,661.3143,222.84517,666.64233L222.63896,666.1905C224.28773,667.709,226.03416,669.31824,226.75462,673.1041L226.75462,673.1041C227.45328,676.77545,227.18721,682.53436,226.93135,688.1646L226.932,688.1326L227.09004,722.356C227.09167,722.7096,226.80637,722.9975,226.4528,722.99915C226.09924,723.00073,225.8113,722.71545,225.80966,722.36194L225.80966,722.36194L225.65164,688.1385C225.65158,688.1278,225.6518,688.1172,225.65228,688.10645L225.65228,688.10645C225.91144,682.404,226.16034,676.8302,225.49681,673.3435L225.49681,673.3435C224.85509,669.9714,223.3621,668.5972,221.77155,667.1323C221.64482,667.01556,221.5705,666.8527,221.56534,666.68054L221.56534,666.68054C221.40219,661.2088,221.2342,655.97015,220.16696,653.43884L220.16696,653.43884C219.22417,651.2027,217.5932,651.2143,215.47025,651.2719L215.4705,651.2719L215.46468,651.2721C215.11111,651.2817,214.81686,651.0032,214.80708,650.6499L214.80708,650.6499L214.41252,636.39056C214.4037,636.07227,214.6301,635.79596,214.94383,635.74194L214.94383,635.74194L218.53252,635.1241L218.19307,635.2978L223.28616,630.30676L223.09431,630.78235L222.94962,625.74414C222.93948,625.3907,223.21776,625.09595,223.57118,625.0859C223.92459,625.0757,224.21933,625.35394,224.22949,625.70734 Z"/> </g> <g style="fill:rgb(0,0,0); fill-opacity:1.0; stroke-linejoin: miter"> <path d="M226.49774,721.6855L226.49774,721.6855L337.16296,711.928C337.3032,711.9156,337.4436,711.9498,337.56244,712.02527L337.56244,712.02527C339.18362,713.0552,340.96063,714.18365,341.67383,717.4389L341.67383,717.4389C342.25156,720.0757,342.1308,724.14374,342.04788,727.04224L342.04788,727.04224C342.03293,727.5643,342.01904,728.04944,342.01,728.48785L342.01,728.4878C341.9506,731.37354,342.1022,732.1968,342.2481,733.0166C342.31012,733.36475,342.07816,733.69714,341.73004,733.7591C341.38196,733.82104,341.04956,733.58905,340.98758,733.241L340.98758,733.241C340.82538,732.3298,340.66895,731.4225,340.72992,728.46155L340.72992,728.46155C340.73917,728.0132,340.753,727.5301,340.768,727.0056L340.768,727.0056C340.85278,724.0425,340.9593,720.1603,340.42313,717.71295L340.42313,717.71295C339.82416,714.97925,338.42786,714.0919,336.87592,713.106L337.2754,713.20337L226.6102,722.96094C226.258,722.992,225.94731,722.7316,225.91626,722.37946C225.8852,722.0272,226.14555,721.71655,226.49774,721.6855 Z"/> </g> <g style="fill:rgb(0,0,0); fill-opacity:1.0; stroke-linejoin: miter"> <path d="M342.242,731.8454L342.242,731.8454C345.12393,733.9169,348.19742,736.1082,349.4646,740.6638L349.4646,740.6638C350.7025,745.1141,350.19507,751.80566,349.71075,758.31134C349.68707,758.6294,349.43286,758.88153,349.11462,758.9026L349.11462,758.9026L328.26627,760.2834C328.19336,760.28827,328.12015,760.2806,328.04977,760.2607L328.04977,760.2607C326.50366,759.82355,324.6849,759.3298,323.54358,757.3088L323.54358,757.3088C322.47104,755.4096,322.02762,752.1653,321.60248,749.1313C321.59912,749.1074,321.5971,749.0834,321.5965,749.05927L321.5965,749.05927C321.5274,746.4368,321.45303,743.72156,321.8803,741.42175L321.8803,741.42175C322.3114,739.1018,323.24707,737.2286,324.1382,735.4373C324.29572,735.1208,324.68,734.99176,324.99655,735.1493C325.3131,735.3068,325.44208,735.69104,325.28458,736.0076L325.28458,736.0076C324.38654,737.81274,323.53308,739.53564,323.13916,741.65564L323.13916,741.65564C322.74152,743.7959,322.80634,746.3643,322.87643,749.0256L322.87045,748.9536C323.31195,752.1041,323.73517,755.0443,324.65848,756.6792L324.65848,756.6792C325.513,758.1923,326.81927,758.58215,328.39816,759.02856L328.1817,759.0058L349.03003,757.625L348.43387,758.2163C348.92572,751.6099,349.39447,745.1896,348.23105,741.0069L348.23105,741.0069C347.09692,736.9297,344.39157,734.9673,341.49472,732.8851C341.2076,732.6788,341.14215,732.2787,341.3485,731.99164C341.55487,731.7045,341.95493,731.63904,342.242,731.8454 Z"/> </g> <g style="fill:rgb(0,0,0); fill-opacity:1.0; stroke-linejoin: miter"> <path d="M324.24335,736.33484L324.24335,736.33484L323.9892,732.66656L324.75983,733.2488L263.47675,746.15814L263.596,744.9428L315.7575,767.19824C316.08273,767.33704,316.23386,767.71313,316.09512,768.0383C315.95636,768.3635,315.58023,768.5147,315.25504,768.3759L315.25504,768.3759L263.09354,746.1205C262.83655,746.01086,262.68036,745.7472,262.70764,745.4691C262.73492,745.19104,262.9394,744.9628,263.21283,744.9052L263.21283,744.9052L324.4959,731.99585C324.67712,731.9577,324.86603,731.9999,325.0138,732.1115C325.16153,732.22314,325.25372,732.3933,325.26654,732.57806L325.26654,732.57806L325.5207,736.24634C325.54514,736.599,325.279,736.9048,324.9263,736.92926C324.57358,736.9537,324.2678,736.68756,324.24335,736.33484 Z"/> </g> <g style="fill:rgb(0,0,0); fill-opacity:1.0; stroke-linejoin: miter"> <path d="M315.0041,766.5511L315.0041,766.5511C324.5468,769.6906,334.3547,772.8992,338.9926,777.5132L338.9926,777.5132C343.74564,782.24176,343.06342,788.36975,342.4587,794.1054C342.42163,794.45703,342.10654,794.71204,341.75494,794.6749C341.4033,794.6379,341.14832,794.3228,341.18536,793.9712L341.18536,793.9712C341.8027,788.1155,342.34256,782.65204,338.08957,778.4209L338.08957,778.4209C333.72144,774.07526,324.2953,770.95575,314.60394,767.76733C314.26807,767.6568,314.0854,767.295,314.19586,766.9591C314.30637,766.6232,314.66824,766.44055,315.0041,766.5511 Z"/> </g> <g style="fill:rgb(0,0,0); fill-opacity:1.0; stroke-linejoin: miter"> <path d="M342.5641,793.7667L342.5641,793.7667C342.597,796.8331,342.6391,799.6922,343.40973,801.51294L343.40973,801.51294C344.14465,803.2493,345.57407,804.074,347.22708,805.0038C347.39554,805.0985,347.51215,805.26434,347.54443,805.4549L347.54443,805.4549C348.8628,813.24097,350.258,821.34674,348.6503,825.7773L348.6503,825.7773C346.95963,830.43665,342.07483,831.0125,337.78842,831.5714C337.4378,831.6171,337.11655,831.36993,337.07083,831.01935C337.02512,830.66876,337.27228,830.3475,337.62286,830.30176L337.62286,830.30176C342.14474,829.71216,346.0682,829.1395,347.44672,825.3406L347.44672,825.3406C348.9082,821.3128,347.6335,813.6506,346.282,805.66864L346.59937,806.11975C344.9909,805.21497,343.15878,804.20496,342.2306,802.012L342.2306,802.012C341.33813,799.9034,341.31552,796.73816,341.28375,793.78046C341.27997,793.4269,341.5635,793.1372,341.91705,793.1334C342.2706,793.12964,342.56027,793.41315,342.5641,793.7667 Z"/> </g> <g style="fill:rgb(0,0,0); fill-opacity:1.0; stroke-linejoin: miter"> <path d="M338.13562,831.3564L338.13562,831.3564L322.42526,831.13324C322.307,831.1316,322.19153,831.09717,322.09164,831.0339L322.09164,831.0339C319.98193,829.6968,317.7471,828.26794,316.88788,823.6617L316.88788,823.6617C316.0591,819.21875,316.5016,811.7285,316.93097,804.3787C316.94263,804.17896,317.04703,803.99615,317.2131,803.88464L317.2131,803.88464L321.07956,801.28735L320.79694,801.8464L320.40613,792.79156C320.39087,792.4383,320.66486,792.1396,321.0181,792.1243C321.37134,792.1091,321.67004,792.3831,321.6853,792.73627L321.6853,792.73627L322.07614,801.79114C322.08575,802.01404,321.97867,802.2258,321.79352,802.3502L321.79352,802.3502L317.92706,804.9475L318.20917,804.4534C317.775,811.8856,317.35388,819.1775,318.14658,823.4269L318.14658,823.4269C318.90875,827.513,320.78036,828.6869,322.77707,829.9524L322.44345,829.853L338.1538,830.0761C338.50735,830.0811,338.78986,830.37177,338.78485,830.72534C338.77982,831.07886,338.48914,831.3614,338.13562,831.3564 Z"/> </g> <g style="fill:rgb(0,0,0); fill-opacity:1.0; stroke-linejoin: miter"> <path d="M320.51007,793.7738L320.51007,793.7738L216.80756,762.8922L217.43752,762.7367L214.74695,765.36383C214.64948,765.4589,214.52422,765.52057,214.38933,765.5396L214.38933,765.5396L203.19331,767.1228L203.28033,767.10425L195.78809,769.2551L195.99019,769.15594L138.63889,811.24316C138.35384,811.45233,137.95316,811.3909,137.74399,811.10583C137.53482,810.82074,137.59634,810.4201,137.88138,810.21094L137.88138,810.21094L195.23267,768.12366C195.29362,768.0789,195.36206,768.0453,195.43477,768.0244L195.43477,768.0244L202.92703,765.87354C202.95557,765.8654,202.98465,765.8592,203.01407,765.855L203.01407,765.855L214.21008,764.27185L213.85248,764.44763L216.54303,761.8206C216.70924,761.65826,216.9503,761.59875,217.17297,761.6651L217.17297,761.6651L320.8755,792.54663C321.21436,792.6476,321.40726,793.0041,321.30634,793.3429C321.20544,793.6818,320.84894,793.8747,320.51007,793.7738 Z"/> </g> <g style="fill:rgb(0,0,0); fill-opacity:1.0; stroke-linejoin: miter"> <path d="M138.93826,810.8865L138.93826,810.8865L138.88284,818.12085L138.50842,817.5335C141.11807,818.72424,143.8864,820.03766,143.91743,826.0412L143.91743,826.0412C143.94714,831.78467,141.47382,842.031,139.04019,852.13403C138.96962,852.427,138.70432,852.6311,138.40306,852.62415L138.40306,852.62415L112.09894,852.0187C111.77118,852.0111,111.502075,851.7572,111.47558,851.4304L111.475586,851.4305L111.47218,851.38873L111.47218,851.3886C110.67517,841.56384,109.86603,831.6172,110.577866,826.1918L110.577866,826.1918C111.320076,820.53485,113.75357,819.5634,116.10088,818.6937L115.684586,819.2505L117.3033,795.52386C117.314026,795.3667,117.38231,795.219,117.49509,795.109L117.49509,795.109L134.71245,778.3216C134.73009,778.3043,134.7487,778.2882,134.7682,778.2732L134.7682,778.2732L163.55237,756.05493C163.83224,755.83887,164.23428,755.8906,164.45032,756.17053C164.66638,756.4504,164.61462,756.8524,164.33472,757.0684L164.33472,757.0684L135.55057,779.2867L135.60631,779.2383L118.38894,796.02576L118.58072,795.611L116.96201,819.3376C116.94486,819.589,116.78193,819.8068,116.545715,819.89435L116.545715,819.89435C114.48396,820.65826,112.50838,821.3203,111.84737,826.35834L111.84737,826.35834C111.15799,831.6126,111.94499,841.3817,112.74838,851.28516L112.74837,851.28503L112.75177,851.3268L112.1284,850.7386L138.43253,851.3441L137.79541,851.83417C140.2504,841.6424,142.66574,831.5937,142.63705,826.04785L142.63705,826.04785C142.60974,820.762,140.37265,819.79156,137.97691,818.69836C137.74721,818.59357,137.60056,818.3635,137.6025,818.111L137.6025,818.111L137.65793,810.8767C137.66064,810.52313,137.94945,810.2387,138.30301,810.2414C138.65657,810.24414,138.94098,810.53296,138.93826,810.8865 Z"/> </g> <g style="fill:rgb(0,0,0); fill-opacity:1.0; stroke-linejoin: miter"> <path d="M200.93025,215.31964L200.93025,215.31964C204.39943,217.40913,208.07533,219.60558,209.91464,222.54066L209.91464,222.54066C211.76324,225.49059,211.76569,229.18066,210.56895,231.283L210.56895,231.283C209.85486,232.53754,208.73761,233.1721,207.75377,233.74352L207.75377,233.74352C207.01593,234.17201,206.3379,234.56952,205.75122,235.16052L205.75122,235.16052C204.3194,236.60286,203.34889,239.2654,202.31413,242.14824C202.27539,242.25621,202.20834,242.35176,202.12004,242.42494L202.12004,242.42494L195.66876,247.77007C195.5484,247.86981,195.3957,247.92206,195.23949,247.91695L195.23915,247.91695L195.22998,247.91664L195.2303,247.91664C193.76352,247.86888,192.54115,247.84752,191.6398,248.32831L191.6398,248.32831C191.56416,248.36865,191.4914,248.41232,191.42123,248.45973L191.42125,248.45973C190.49417,249.08633,189.87746,250.4324,189.16415,252.0514C189.08746,252.22546,188.93733,252.35643,188.75447,252.40874L188.75447,252.40874L184.90276,253.5112C184.68777,253.57274,184.45625,253.51764,184.29204,253.36584C184.12784,253.21405,184.05472,252.98758,184.09918,252.76843L184.09918,252.76843C185.05432,248.06091,186.01979,243.30136,189.5676,236.38902L189.5676,236.38902C191.85292,231.93639,195.2101,226.59059,197.86855,222.35669L197.86855,222.35669C199.32312,220.04005,200.56323,218.06474,201.31958,216.73102L201.31958,216.73102C202.04843,215.4458,202.24529,214.88889,202.2526,214.73991L202.2526,214.73991C202.2543,214.70547,202.23344,214.95712,202.49414,215.10498L202.49413,215.10497C202.6578,215.1978,202.78864,215.15555,202.76074,215.16214L202.76076,215.16216C202.74893,215.16495,202.6958,215.1822,202.59076,215.23824L202.59076,215.23824C202.21005,215.44131,201.63562,215.87978,200.98994,216.37575L200.93025,215.31964 M200.26965,216.41646C200.08833,216.30727,199.97272,216.11551,199.96078,215.90417C199.94884,215.69286,200.04211,215.48929,200.20998,215.36035L200.20998,215.36035C200.81458,214.89592,201.49037,214.37404,201.98817,214.1085L201.98817,214.1085C202.13158,214.03201,202.29724,213.95607,202.46597,213.91615L202.46597,213.91615C202.60315,213.8837,202.86719,213.84457,203.12576,213.99123L203.12575,213.99121C203.50348,214.20541,203.54137,214.60059,203.53145,214.8027L203.53145,214.8027C203.50613,215.31827,203.11508,216.16048,202.43332,217.36264L202.43332,217.36264C201.65918,218.72774,200.40005,220.73274,198.9529,223.03755L198.9529,223.03755C196.286,227.28491,192.96158,232.5804,190.7067,236.97366L190.7067,236.97366C187.24025,243.72751,186.30232,248.34914,185.354,253.02303L184.55043,252.28024L188.40215,251.17778L187.99245,251.53516C188.64995,250.04286,189.40398,248.27774,190.70427,247.39891L190.70428,247.39891C190.81268,247.32565,190.9237,247.25911,191.03722,247.19858L191.03722,247.19858C192.30125,246.52434,193.90814,246.59251,195.27197,246.63693L195.27231,246.63695L195.2815,246.63725L194.85188,246.78413L201.30313,241.439L201.10904,241.7157C202.10439,238.94264,203.16391,235.94942,204.84254,234.25845L204.84254,234.25845C205.56596,233.52972,206.38985,233.05496,207.11072,232.63629L207.11072,232.63629C208.13136,232.04355,208.93733,231.56117,209.45622,230.64961L209.45622,230.64961C210.3898,229.00954,210.46204,225.82538,208.8297,223.22058L208.8297,223.22058C207.18806,220.60095,203.83221,218.56218,200.26965,216.41646 Z"/> </g> <g style="fill:rgb(0,0,0); fill-opacity:1.0; stroke-linejoin: miter"> <path d="M202.714,213.88582C202.838,213.88582,202.98271,213.9101,203.12576,213.99123L203.12578,213.99123C203.50348,214.20543,203.54137,214.60059,203.53145,214.8027C203.51257,215.18723,203.29025,215.75343,202.89561,216.51515L202.89764,216.51515C205.71822,218.26219,208.42155,220.15805,209.91464,222.54066C211.76324,225.49059,211.76569,229.18066,210.56895,231.283C209.85486,232.53754,208.73761,233.1721,207.75377,233.74352C207.01593,234.17201,206.3379,234.56952,205.75122,235.16052C204.3194,236.60286,203.34889,239.2654,202.31413,242.14824C202.27539,242.25621,202.20834,242.35176,202.12004,242.42494L195.66876,247.77007C195.55379,247.86536,195.4093,247.91728,195.26042,247.91728C195.25345,247.91728,195.24648,247.91718,195.23949,247.91695L195.23915,247.91695L195.22998,247.91664L195.2303,247.91664C194.83987,247.90393,194.46677,247.89308,194.11243,247.89308C193.13553,247.89308,192.30124,247.9755,191.6398,248.32831C191.56416,248.36865,191.4914,248.41232,191.42123,248.45973L191.42125,248.45973C190.49417,249.08633,189.87746,250.4324,189.16415,252.0514C189.08746,252.22546,188.93733,252.35643,188.75447,252.40874L184.90276,253.5112C184.8447,253.52782,184.78545,253.53593,184.72662,253.53593C184.56764,253.53593,184.41191,253.47665,184.29204,253.36584C184.12784,253.21405,184.05472,252.98758,184.09918,252.76843C185.05432,248.06091,186.01979,243.30136,189.5676,236.38902C191.85292,231.93639,195.2101,226.59059,197.86855,222.35669C199.23882,220.17433,200.41876,218.29488,201.18324,216.96933L201.18526,216.96933C200.88223,216.78554,200.5767,216.6014,200.26965,216.41646C200.08833,216.30727,199.97272,216.11551,199.96078,215.90417C199.94884,215.69286,200.04211,215.48929,200.20998,215.36035C200.81458,214.89592,201.49037,214.37404,201.98817,214.1085C202.13158,214.03201,202.29724,213.95607,202.46597,213.91615C202.52727,213.90166,202.61388,213.88582,202.714,213.88582 Z M93.00605,139.79483C91.53075,139.79483,90.08037,139.92992,88.65875,140.25824C84.03444,141.32623,79.64067,144.46088,76.56414,146.94937C73.54346,149.39268,71.89074,151.12944,70.235634,152.87625L70.236336,152.87625C68.47065,155.96677,67.53409,157.92432,68.226204,158.4967L68.22621,158.4967C68.27578,158.5377,68.34509,158.58153,68.44119,158.6243L68.44121,158.62431C68.82665,158.79591,69.39492,158.86848,70.10285,158.86848C71.80122,158.86848,74.30341,158.45085,77.013336,157.98135C77.049965,157.975,77.08658,157.97192,77.122826,157.97192C77.36085,157.97192,77.58331,158.105,77.693665,158.32274C77.82082,158.57362,77.76932,158.87811,77.566734,159.07326L67.77786,168.50154C67.68859,168.58752,67.58082,168.64243,67.46791,168.6665L67.46858,168.6665C59.913963,176.1602,52.60018,183.52324,49.55018,190.48615C46.453754,197.55502,47.745384,204.25998,49.095085,211.18172C49.099617,211.20496,49.102863,211.22842,49.10479,211.252C49.844276,220.28333,50.579845,229.13196,56.53578,237.63144C62.524292,246.1774,73.82575,254.42242,82.21209,259.55136C90.247696,264.46582,95.512634,266.46283,100.701775,268.36118C100.7494,268.35034,100.79708,268.34512,100.8441,268.34512C101.04758,268.34512,101.23856,268.44284,101.35821,268.60422L101.35922,268.60422C101.65563,268.7437,101.801796,269.0891,101.68719,269.40283C101.67471,269.43698,101.65964,269.46942,101.64227,269.5L101.64329,269.5L103.418144,276.16177C103.47844,276.3881,103.41034,276.62927,103.24057,276.79062C101.75249,278.20502,100.30211,279.58466,98.691055,281.98676C97.07047,284.40298,95.28573,287.85443,93.47597,291.35947L93.45301,291.40393C93.3716,291.5616,93.233795,291.67117,93.077,291.72073L93.077934,291.72073C92.958595,291.85223,92.78706,291.9312,92.604004,291.9312C92.56004,291.9312,92.51542,291.92664,92.47069,291.91718L66.819984,286.48337L66.820656,286.48337C62.60444,286.03778,58.44782,285.6035,54.563023,285.6035C50.735363,285.6035,47.171593,286.0251,44.074715,287.2729L44.07471,287.2729C38.383545,289.566,34.201733,294.68076,30.048708,300.1977L30.049007,300.1977C30.063519,300.369,30.00942,300.5456,29.884598,300.68277C24.948189,306.10733,20.020988,311.44107,23.40821,328.67917C24.1622,332.5163,25.329498,336.94498,26.782486,341.81964C29.202301,349.93784,32.40445,359.26074,35.789436,369.11566C39.56566,380.10965,43.56742,391.76004,46.944206,403.0888C55.162514,430.66025,59.677715,456.32,64.185905,481.9408L64.186554,481.9408C67.91402,496.4556,71.653305,511.0184,73.44513,525.45056C75.21631,539.7167,75.082954,553.84094,74.92744,567.91595L74.92819,567.91595C74.941154,567.95123,74.95119,567.98816,74.95793,568.0265C76.6062,577.3922,78.236374,586.63654,79.84891,590.8685C80.85426,593.5071,81.725784,593.8692,82.311295,593.8692L82.311295,593.86914C82.771614,593.86914,83.262566,593.66547,83.91295,593.38104C83.99551,593.3449,84.0828,593.32733,84.16941,593.32733C84.33188,593.32733,84.49191,593.3892,84.613655,593.50653L94.67798,603.2023C94.798775,603.3186,94.86907,603.4778,94.87375,603.6455C94.99667,608.0489,95.16943,611.81744,97.83362,613.33777C99.04018,614.02637,100.83812,614.30457,103.07395,614.30457L103.07529,614.30457C105.83712,614.30457,109.10281,613.88434,112.42435,613.4559C112.45159,613.45233,112.47896,613.4506,112.506294,613.4506C112.57222,613.4506,112.637924,613.4608,112.701035,613.4809C117.38623,614.97723,121.956635,616.43207,125.860886,616.61084L125.8622,616.61084C126.14454,616.6238,126.42299,616.62994,126.69885,616.63L126.69908,616.63C130.00511,616.62994,132.872,615.7404,135.80026,614.766L135.80162,614.766C135.8906,614.7077,135.99489,614.671,136.10696,614.66327L136.10832,614.66327C136.18672,614.6371,136.26517,614.6109,136.34369,614.58466C136.41101,614.56213,136.47943,614.55145,136.5467,614.55145C136.68214,614.55145,136.81293,614.5948,136.92072,614.67224L136.92209,614.67224L180.00893,615.2631C180.13036,615.2648,180.24878,615.3009,180.35043,615.3673L189.61375,621.42236C189.65875,621.4518,189.69882,621.4859,189.73375,621.5236L189.73564,621.5236C189.79016,621.55304,189.8413,621.59094,189.8871,621.6373C190.13559,621.88885,190.13312,622.2942,189.88159,622.54266C184.47223,627.88666,179.1068,633.1891,174.73172,639.1296C170.35716,645.06934,166.96217,651.66144,163.5409,658.3076C163.43002,658.523,163.2089,658.65485,162.97188,658.65485C162.94069,658.65485,162.90921,658.6526,162.87769,658.6479L160.56134,658.304L152.99673,674.2218C152.99275,674.23016,152.98859,674.23846,152.98424,674.24664L139.63927,699.43896L140.55423,699.62976L149.53807,681.8135C149.57913,681.73206,149.63712,681.66034,149.70815,681.6031L161.33215,672.2418L166.61711,662.6858L164.89038,661.52655C164.59682,661.32947,164.5186,660.93176,164.71568,660.6382C164.7911,660.5259,164.89592,660.44507,165.01303,660.3992L165.01468,660.3992C164.8709,660.2081,164.84044,659.9439,164.95831,659.7178C168.29015,653.32526,171.65054,646.8746,175.92537,641.22675C180.20102,635.5779,185.37955,630.74774,190.50958,625.9607C190.63026,625.8481,190.7871,625.7886,190.94644,625.7886C191.02507,625.7886,191.10432,625.8031,191.18015,625.8328C191.40964,625.9228,191.56705,626.13666,191.58488,626.3825L192.16466,634.3792L199.74583,635.3355C199.86168,635.22095,200.02086,635.1504,200.19589,635.1504C200.19995,635.1504,200.20401,635.15045,200.20807,635.1505C200.56158,635.1571,200.84279,635.44904,200.83618,635.80255L200.56424,650.3284C200.55902,650.6076,200.37344,650.8512,200.10567,650.93036L194.7125,652.52484L194.31787,665.201C194.30823,665.5106,194.07826,665.7689,193.7718,665.81433L193.77136,665.8144L193.75473,665.81665C193.0576,665.9013,192.41843,665.9803,191.81685,666.1495C190.44766,666.53455,189.16792,667.4051,188.44475,670.41473C187.4059,674.7382,187.59366,683.1228,187.81233,691.73236L187.81421,691.73236C187.89781,691.76227,187.98131,691.7922,188.06468,691.822C188.39757,691.9411,188.5708,692.30756,188.45163,692.64044C188.35799,692.90204,188.11163,693.065,187.84886,693.065C187.77725,693.065,187.7044,693.0529,187.63312,693.0274C187.46234,692.96625,187.29204,692.90533,187.1223,692.8448L187.12418,692.8448C187.01712,692.83484,186.91745,692.79846,186.83195,692.74207L186.83383,692.74207C184.74281,691.9996,182.74315,691.3348,180.96695,691.12756L180.96646,691.12756C180.59755,691.0846,180.24333,691.0618,179.9041,691.0618C178.38696,691.0618,177.1696,691.5172,176.2793,692.6563C173.90192,695.6981,173.5649,703.60706,173.24521,711.95233C173.2399,712.0908,173.18979,712.2239,173.10239,712.3315C172.03342,713.64746,171.06311,714.8529,170.70567,716.8754L170.70569,716.8754C170.33557,718.9699,170.61365,721.94995,170.91014,725.0671C170.92691,725.2432,170.87001,725.4185,170.75298,725.55115C170.63594,725.6839,170.46922,725.7622,170.29237,725.7676L49.977768,729.4431C49.971107,729.4433,49.964466,729.4434,49.957848,729.4434C49.80972,729.4434,49.672703,729.39276,49.563786,729.3075L49.56329,729.3075C46.92963,730.10034,44.67086,731.122,43.456207,733.928C41.95976,737.385,42.00228,743.5477,42.06521,749.9607L42.06521,749.9608L42.065643,750.0065C42.06727,750.1716,42.004936,750.33105,41.891697,750.45135L36.20161,756.49786L36.201973,756.49786C35.718468,765.7326,35.31883,774.4431,37.40805,777.47546C38.049004,778.4058,38.952045,778.7842,40.169605,778.86475L40.1696,778.86475C40.247013,778.8698,40.32617,778.8738,40.406166,778.87646L40.406197,778.87646C40.503014,778.87976,40.601135,778.88135,40.70057,778.88135C41.719944,778.88135,42.877136,778.715,44.17741,778.5263C45.6353,778.31464,47.24741,778.0792,48.90582,778.0792C49.093906,778.0792,49.282585,778.0823,49.471706,778.0887L49.47175,778.0887C49.653465,778.09485,49.833824,778.10406,50.015213,778.1161L50.015156,778.1161C51.432163,778.20984,52.853546,778.47144,54.193485,778.7174L54.19349,778.7174C55.474236,778.9525,56.67233,779.1716,57.787346,779.2453L57.78735,779.2453C58.04371,779.26227,58.293194,779.2714,58.535767,779.2714C60.272667,779.2714,61.655033,778.80145,62.667194,777.3563L62.667206,777.3563C65.39601,773.46027,65.660355,762.5054,64.70784,757.4245L64.70783,757.4245C64.16383,754.5227,63.320694,754.0601,62.71509,754.02L62.71506,754.02C62.67961,754.0177,62.643753,754.01654,62.607475,754.01654C62.009678,754.01654,61.29718,754.3288,60.393845,754.7453C60.308075,754.78485,60.216682,754.8041,60.125942,754.8041C59.96922,754.8041,59.81445,754.7466,59.694008,754.63654C59.50385,754.4628,59.436314,754.1921,59.522636,753.94934L61.324944,748.8819C61.41618,748.62537,61.65878,748.45624,61.92792,748.45624C61.942345,748.45624,61.956844,748.4567,61.9714,748.4577L163.77533,755.3562C164.1281,755.3801,164.39468,755.6854,164.37079,756.0382C164.36978,756.05304,164.36829,756.06775,164.3663,756.0822L164.36794,756.0822C164.39758,756.1085,164.42522,756.138,164.45032,756.17053C164.66638,756.4504,164.61462,756.8524,164.33472,757.0684L135.57985,779.2641L118.56407,795.855L116.96201,819.3376C116.94486,819.589,116.78193,819.8068,116.545715,819.89435C114.48396,820.65826,112.50838,821.3203,111.84737,826.35834C111.170364,831.51825,111.917206,841.03235,112.70513,850.7519L112.70626,850.7519L137.9163,851.3322C140.32906,841.3136,142.66527,831.5026,142.63705,826.04785C142.60974,820.762,140.37265,819.79156,137.97691,818.69836C137.74721,818.59357,137.60056,818.3635,137.6025,818.111L137.6574,810.94714L137.65877,810.94714C137.56322,810.68634,137.64624,810.3835,137.88138,810.21094L195.23267,768.12366C195.29362,768.0789,195.36206,768.0453,195.43477,768.0244L202.92703,765.87354C202.95557,765.8654,202.98465,765.8592,203.01407,765.855L214.00244,764.3012L216.54303,761.8206C216.66432,761.70215,216.82547,761.6384,216.99025,761.6384C217.05127,761.6384,217.1128,761.64716,217.17297,761.6651L320.49704,792.43396C320.60413,792.2563,320.79535,792.134,321.0181,792.1243C321.0275,792.1239,321.03687,792.1237,321.0462,792.1237C321.38705,792.1237,321.67044,792.3925,321.6853,792.73627L322.07614,801.79114C322.08575,802.01404,321.97867,802.2258,321.79352,802.3502L318.18735,804.77264L318.19052,804.77264C317.76318,812.0939,317.36523,819.23834,318.14658,823.4269C318.8893,827.40875,320.68558,828.62506,322.62448,829.85565L322.62772,829.85565L338.1538,830.0761C338.28308,830.07794,338.40286,830.118,338.50256,830.1853C342.64746,829.62335,346.15845,828.89087,347.44672,825.3406C348.88968,821.36383,347.66537,813.84424,346.33334,805.972L346.33682,805.972C344.79553,805.10236,343.1086,804.0864,342.2306,802.012C341.4002,800.05005,341.32288,797.1734,341.29056,794.4002L341.29395,794.4002C341.21082,794.27905,341.16876,794.1288,341.18536,793.9712C341.8027,788.1155,342.34256,782.65204,338.08957,778.4209C333.92862,774.2814,325.1781,771.25446,315.98065,768.2207L315.9775,768.2207C315.85614,768.3526,315.68417,768.4274,315.50598,768.4274C315.42218,768.4274,315.337,768.4109,315.25504,768.3759L263.09354,746.1205C262.83655,746.01086,262.68036,745.7472,262.70764,745.4691C262.73492,745.19104,262.9394,744.9628,263.21283,744.9052L324.4959,731.99585C324.53964,731.98663,324.58386,731.9821,324.6278,731.9821C324.76593,731.9821,324.9017,732.02686,325.0138,732.1115C325.16153,732.22314,325.25372,732.3933,325.26654,732.57806L325.5207,736.24634C325.54514,736.599,325.279,736.9048,324.9263,736.92926C324.91125,736.9303,324.8963,736.9308,324.88144,736.9308C324.86517,736.9308,324.84903,736.9302,324.83304,736.929L324.8298,736.929C324.10803,738.4137,323.4657,739.89825,323.13916,741.65564C322.7419,743.7938,322.8062,746.3594,322.87622,749.0179L322.87946,749.0179C323.31772,752.14404,323.74146,755.0554,324.65848,756.6792C325.49377,758.15826,326.7607,758.564,328.29196,758.9985L348.4716,757.662L348.4751,757.662C348.95068,751.2522,349.3619,745.0725,348.23105,741.0069C347.18994,737.26416,344.82483,735.30347,342.20297,733.3963L342.19955,733.3963C342.11484,733.58014,341.94446,733.72095,341.73004,733.7591C341.6921,733.76587,341.65436,733.7691,341.61713,733.7691C341.3127,733.7691,341.04282,733.55115,340.98758,733.241C340.82538,732.3298,340.66895,731.4225,340.72992,728.46155C340.73917,728.0132,340.753,727.5301,340.768,727.0056C340.85278,724.0425,340.9593,720.1603,340.42313,717.71295C339.84787,715.0874,338.5371,714.16504,337.0594,713.2227L337.056,713.2227L226.68286,722.9545L226.68513,722.9545C226.61319,722.983,226.53484,722.9988,226.4528,722.99915L226.44987,722.99915C226.09766,722.99915,225.8113,722.7145,225.80966,722.36194L225.65164,688.1385C225.65158,688.1278,225.6518,688.1172,225.65228,688.10645C225.91144,682.404,226.16034,676.8302,225.49681,673.3435C224.85509,669.9714,223.3621,668.5972,221.77155,667.1323C221.64482,667.01556,221.5705,666.8527,221.56534,666.68054C221.40219,661.2088,221.2342,655.97015,220.16696,653.43884C219.35825,651.5207,218.04317,651.2565,216.34555,651.2565C216.06412,651.2565,215.77216,651.26373,215.47025,651.2719L215.4705,651.2719L215.46468,651.2721C215.45876,651.2723,215.45287,651.27234,215.44698,651.27234C215.10135,651.27234,214.8167,650.99725,214.80708,650.6499L214.41252,636.39056C214.4037,636.07227,214.6301,635.79596,214.94383,635.74194L218.33575,635.15796L223.08629,630.5026L222.97446,626.6089L221.05539,627.56494C220.96368,627.61066,220.86629,627.63226,220.77036,627.63226C220.5352,627.63226,220.30887,627.5022,220.1969,627.2774C220.03922,626.96094,220.16795,626.57654,220.48444,626.41895L234.27,619.55096C234.36002,619.5061,234.45778,619.48376,234.55539,619.48376C234.66562,619.48376,234.77565,619.51227,234.87416,619.5688C235.05989,619.67535,235.18002,619.8678,235.19424,620.0815L235.73315,628.1733C235.74612,628.36835,235.66936,628.55853,235.52466,628.6899L232.83932,631.1275L236.90334,660.73956L236.90572,660.73956C241.69559,661.61005,246.37416,662.4349,250.31833,662.4349C251.29541,662.4349,252.22742,662.3843,253.10489,662.2712C257.44366,661.71185,260.4771,659.6149,263.58893,657.3766L263.59155,657.3766L261.6477,626.97864L259.23895,625.6148C259.067,625.51746,258.94965,625.3462,258.92096,625.15063L257.85956,617.9176C257.82733,617.698,257.9112,617.4773,258.08118,617.3345C258.19818,617.2362,258.34445,617.1845,258.49304,617.1845C258.56033,617.1845,258.62808,617.1951,258.6938,617.2168L260.20502,617.71606C260.27777,617.6871,260.35712,617.67096,260.4402,617.6707C282.78934,617.59827,305.1315,617.5258,321.26138,617.175C337.43298,616.82324,347.23944,616.18866,353.6025,613.7937C359.68726,611.5034,362.64493,607.58856,365.58685,603.4866L365.5905,603.4866C365.54865,603.4562,365.5068,603.4258,365.46497,603.3954C365.1789,603.1876,365.11542,602.7873,365.32318,602.5012C365.44843,602.32874,365.64368,602.2371,365.84167,602.2371C365.9721,602.2371,366.10376,602.2769,366.21738,602.35944C374.82635,608.6122,383.35297,614.80066,391.54633,618.2198C399.7174,621.6296,407.58292,622.2937,415.55408,622.9625C415.74622,622.97864,415.92084,623.08044,416.02945,623.23975C416.13806,623.399,416.16916,623.59875,416.11404,623.78345C414.6756,628.6051,413.3287,633.1837,414.20313,636.904C415.07242,640.60236,418.16574,643.5488,421.47095,646.6668C421.64716,646.833,421.71445,647.0844,421.64484,647.3164L421.64487,647.3164C420.11157,652.5605,418.58112,657.79504,417.10168,663.4732C415.62512,669.1405,414.20337,675.23334,413.5982,684.93146C413.0028,694.4729,413.19742,707.5001,413.40765,720.62866L413.41177,720.62866C413.53275,720.79285,413.57333,721.0119,413.5013,721.21906C413.48032,721.2795,413.45117,721.3347,413.41556,721.38403L413.4197,721.38403C413.42072,721.7337,413.14044,722.0202,412.7898,722.0258C412.7863,722.0259,412.7828,722.0259,412.7793,722.0259C412.4425,722.0259,412.1647,721.7649,412.14096,721.43176L412.14508,721.43176C411.83118,721.33356,411.54697,721.26385,411.2695,721.245C411.2242,721.24194,411.17795,721.2401,411.13077,721.2401C410.39996,721.2401,409.44315,721.6685,408.33014,724.39734C406.59515,728.6513,404.7759,737.8126,402.93607,747.0948L401.33264,755.28406L412.3727,765.65076C412.63046,765.8928,412.6432,766.298,412.40115,766.5557C412.30963,766.65314,412.19482,766.7156,412.07346,766.74243L412.07758,766.74243C410.5547,769.4741,409.04544,772.2648,407.53708,777.9937C405.9741,783.93,404.41702,793.0,402.8527,802.1183L402.85672,802.1183C402.74643,807.26025,402.66873,812.1285,410.26004,816.336C418.04315,820.6498,433.73212,824.1959,449.65955,827.7657L451.03018,825.6603L451.0347,825.6603C450.85632,825.4939,450.7815,825.2324,450.86484,824.9863C450.9552,824.71954,451.20425,824.5514,451.47113,824.5514C451.53925,824.5514,451.6085,824.5623,451.67657,824.5854C451.69116,824.59033,451.70572,824.5953,451.7203,824.6002L451.72205,824.59753C451.84476,824.40906,452.0499,824.3065,452.2592,824.3065C452.37894,824.3065,452.50003,824.3401,452.60785,824.4103C452.81216,824.5433,452.91547,824.7731,452.8967,825.00006L452.9012,825.00006C463.3796,828.54645,473.8553,832.02246,485.45032,834.05536C497.48297,836.1649,510.7358,836.7232,524.04443,837.28015L524.0444,837.28015L524.06396,837.28094C537.64056,835.8116,551.079,834.3488,560.30707,830.73285C568.9364,827.3514,573.59845,822.2158,573.3705,817.11664C573.3533,816.7317,573.3085,816.34436,573.2354,815.9564L573.23535,815.9564C572.17694,810.3428,565.11957,804.33844,555.1808,801.7762C551.4227,800.8074,547.27747,800.3391,542.80414,799.8351C535.52954,799.0154,527.4465,798.1078,519.13025,794.74194C505.85452,789.3689,492.03354,777.7462,478.31778,766.1761L478.32257,766.1761C477.03793,766.12317,475.75055,766.06866,474.46384,766.0142C474.11057,765.9993,473.83633,765.7008,473.8513,765.34753C473.8658,765.00354,474.14935,764.7344,474.49045,764.7344C474.49957,764.7344,474.50876,764.7346,474.51797,764.735C475.69714,764.7849,476.87576,764.8348,478.05133,764.8834C478.1583,764.81146,478.2832,764.7748,478.40866,764.7748C478.5491,764.7748,478.69025,764.82074,478.8078,764.91473L478.8126,764.91473C484.84998,765.1616,490.79233,765.36835,496.30133,765.36835C499.97217,765.36835,503.45056,765.27655,506.63647,765.04376C515.70795,764.3809,522.3994,762.57385,528.8608,759.846C535.5565,757.0192,541.24646,753.49445,540.96533,749.4973C540.6997,745.7203,535.2841,741.07733,528.9066,736.07184C528.29047,735.5882,527.6625,735.09845,527.04034,734.61334L527.0371,734.61084L527.0339,734.6083C526.8776,734.4865,526.7866,734.2992,526.78735,734.1011L526.8136,727.1709L526.8189,727.1709C526.66284,727.0511,526.5639,726.8612,526.5683,726.6494L528.28735,644.5096C528.2877,644.4928,528.2887,644.47614,528.29034,644.4595C529.8473,628.8277,531.39935,613.2365,531.0557,596.4622C530.7119,579.68256,528.47125,561.7075,526.2247,543.6901C526.20435,543.52734,526.2471,543.37115,526.3338,543.24615L526.33905,543.24615C525.5344,538.9208,524.592,534.7664,521.49524,531.01337C518.13025,526.9351,512.20197,523.2948,506.12405,519.5769L506.1289,519.5769L483.33163,508.25803C483.01492,508.1008,482.88568,507.7166,483.04288,507.39993C483.15472,507.1747,483.38132,507.04428,483.61682,507.04428C483.6679,507.04428,483.71942,507.0504,483.77023,507.06305L558.09576,397.02203L555.0663,394.08792L511.67285,395.18695L452.04587,484.78293C451.95682,484.91678,451.82605,485.00626,451.68228,485.04565L451.6868,485.04565C451.57816,485.19882,451.40338,485.30304,451.20132,485.3147L444.22235,485.7183C444.21002,485.719,444.19772,485.71936,444.18542,485.71936C444.07178,485.71936,443.95987,485.6891,443.86148,485.63135L440.16992,483.46588L370.4129,480.38617C370.0689,480.371,369.79858,480.0865,369.80093,479.74225L369.90298,464.82822L369.90668,464.82822C364.11005,460.881,358.32703,456.93958,354.42596,454.04745C354.12283,453.82275,353.8291,453.60287,353.5481,453.39252C350.48242,451.09775,348.63367,449.72086,345.05438,449.72086C344.68295,449.72086,344.29288,449.73566,343.88086,449.76584C338.9618,450.1261,331.03018,452.67065,322.9685,455.2619C322.9049,455.28235,322.8388,455.29263,322.77258,455.29263C322.72217,455.29263,322.67166,455.28665,322.6222,455.27472L313.62784,453.10016L313.62473,453.10016C313.58423,453.18524,313.52426,453.26266,313.44562,453.32532C313.32776,453.41922,313.18695,453.4648,313.04712,453.4648C312.85886,453.4648,312.6724,453.38217,312.546,453.22348C304.72452,443.40622,296.9289,433.62207,293.08728,429.39566C291.98734,428.18555,291.2142,427.4343,290.57953,426.81757L290.5795,426.81757C288.95007,425.23422,288.23492,424.51904,285.6949,419.88458C284.81354,418.27652,283.70972,416.19186,282.41708,413.75067C278.5003,406.35367,272.8407,395.6655,266.33832,384.94293C257.68863,370.67932,247.54457,356.34998,237.38387,341.99762C237.32475,341.91412,237.2865,341.81763,237.27234,341.7163L235.78769,331.09094L227.8713,328.96548C227.72803,328.92703,227.60257,328.84,227.51636,328.7193L222.8053,322.12427L222.80307,322.12427C222.60327,322.54053,222.40344,322.95697,222.2036,323.37344C222.09349,323.6029,221.86452,323.73685,221.62596,323.73685C221.53308,323.73685,221.43877,323.71652,221.34944,323.67368C221.03069,323.5207,220.89627,323.13828,221.04924,322.81952C221.35068,322.19135,221.65218,321.56305,221.95361,320.9351L221.95583,320.9351L221.73582,320.6271C221.5303,320.33945,221.59692,319.93958,221.88463,319.73407C221.99742,319.6535,222.12744,319.61475,222.25623,319.61475C222.35901,319.61475,222.461,319.63943,222.55283,319.68723C228.39326,307.52902,234.19812,295.59616,239.36914,286.9118C241.81068,282.8114,244.11028,279.43622,246.3949,276.0828C249.3718,271.71313,252.32706,267.37497,255.5824,261.4653C261.34656,251.0012,268.05258,235.60866,274.77618,220.1741C274.81577,220.08327,274.87387,220.00624,274.94415,219.94551L274.9469,219.94551C275.65295,213.59488,276.28735,207.42497,269.8345,199.71942L269.8345,199.71944C263.23254,191.8358,249.26555,182.38808,235.16216,172.8559C235.13947,172.84056,235.11777,172.82378,235.09723,172.80566C231.5935,169.7162,228.18991,166.72398,224.0081,165.11034C219.81607,163.49272,214.80115,163.24332,209.64854,162.99347C209.47328,162.98497,209.3092,162.9049,209.19464,162.77202C206.81934,160.01646,204.60876,157.48419,200.70218,156.98674C200.18608,156.92102,199.6398,156.89034,199.06677,156.89034C195.18442,156.89034,190.07404,158.29895,184.80347,159.76465L184.80342,159.76465L184.76271,159.776C184.70529,159.79196,184.64752,159.79959,184.5907,159.79959C184.31029,159.79959,184.05298,159.61403,183.97423,159.33078C183.96617,159.30183,183.96025,159.2728,183.95636,159.24384L183.95819,159.24384C173.7496,155.50546,163.69164,151.83081,159.33206,150.74367C158.24837,150.47343,157.59262,150.38474,157.22614,150.38474C157.22209,150.38474,157.21808,150.38474,157.2141,150.38477L157.21567,150.38477C157.39937,150.67061,157.77751,151.11124,158.2999,151.6904L158.29991,151.6904L158.30653,151.69774C158.5056,151.91844,158.52669,152.24692,158.35754,152.49112C158.23514,152.66788,158.03635,152.76689,157.83105,152.76689C157.7527,152.76689,157.67342,152.75247,157.59705,152.72244C150.32272,149.86298,143.08493,147.01833,138.57089,145.60443C134.50032,144.32945,132.6833,144.23007,131.0599,144.23007C130.90065,144.23007,130.74326,144.23102,130.58578,144.23192C130.58461,144.23192,130.58344,144.23193,130.58226,144.23193C130.52512,144.23193,130.46822,144.2243,130.41309,144.2092C125.49864,142.86351,120.64996,141.5375,116.155365,141.06834C114.683754,140.91473,113.24811,140.85283,111.83424,140.85283C108.93946,140.85283,106.13597,141.11232,103.301956,141.37546C103.28183,141.37732,103.26184,141.37823,103.24203,141.37823C103.01055,141.37823,102.80307,141.25331,102.69074,141.0625L102.691765,141.0625C99.37545,140.40233,96.134705,139.79483,93.00605,139.79483 Z"/> </g> </g> </svg>